<svg width="64" height="64" viewBox="0 0 64 64" fill="none" xmlns="http://www.w3.org/2000/svg">
<path d="M32.6961 15.4572C32.2426 15.7526 31.8945 16.185 31.6994 16.6912C31.499 17.3451 31.5306 18.0412 31.7785 18.6793C31.9842 19.349 32.3955 19.9344 32.9492 20.3563C33.234 20.5567 33.5609 20.6832 33.909 20.7254C34.257 20.7676 34.6051 20.7096 34.9162 20.5514C35.2853 20.3457 35.5807 20.024 35.7547 19.6391C35.9234 19.2488 36.0183 18.8322 36.0289 18.4104C36.0658 17.8725 35.9973 17.3346 35.8285 16.8231C35.6439 16.2641 35.2853 15.7842 34.8002 15.4572C34.5523 15.299 34.2781 15.1936 33.9881 15.1514C33.698 15.1092 33.4027 15.1408 33.1285 15.2463C32.9756 15.3096 32.8279 15.3887 32.6908 15.4836" fill="white"/>
<path d="M47.7254 36.9834C47.4564 35.491 47.0346 34.0303 46.4703 32.6276C46.0854 31.5834 45.5633 30.592 44.9147 29.685C44.2607 28.8149 43.4328 28.0819 42.7947 27.2012C42.4572 26.7424 42.1725 26.2309 41.8191 25.7826C41.6768 25.4873 41.5397 25.192 41.4025 24.8967C40.9807 23.9739 40.5957 23.0299 40.0947 22.1545C40.0156 22.0174 39.9313 21.8803 39.8522 21.7485C39.7889 20.9047 39.6992 20.061 39.6518 19.2172C39.6887 17.5244 39.5463 15.8264 39.2246 14.16C39.0031 13.3637 38.6656 12.599 38.2227 11.903C37.7059 11.0803 37.0414 10.3631 36.2609 9.78831C34.99 8.88655 33.4713 8.40139 31.9156 8.39612C30.7713 8.36975 29.6375 8.62815 28.6197 9.15549C27.5492 9.74085 26.6844 10.6426 26.1412 11.7342C25.635 12.8364 25.366 14.0282 25.3502 15.241C25.308 16.4328 25.4188 17.6141 25.4662 18.8059C25.5137 20.0399 25.4873 21.2791 25.5875 22.5131C25.6191 22.9086 25.6666 23.3041 25.6666 23.7049C25.6666 23.9053 25.6561 24.1057 25.6508 24.3008L25.635 24.343C25.0971 25.2553 24.5012 26.136 23.8525 26.9744C23.399 27.5492 22.9455 28.1188 22.4867 28.683C21.8908 29.3528 21.3846 30.0963 20.9838 30.8979C20.7148 31.594 20.4986 32.3112 20.3299 33.0389L20.3141 33.0969C20.0609 33.9354 19.7445 34.7475 19.3648 35.5332C19.3279 35.6071 19.291 35.6862 19.2594 35.7547C19.0326 36.2241 18.7953 36.6934 18.5475 37.1522L18.2627 37.6848C18.0834 38.0065 17.9252 38.3387 17.7881 38.6762C17.709 38.8819 17.6457 39.0928 17.6088 39.309C17.5402 39.7678 17.5719 40.2319 17.6932 40.6748C17.7195 40.7856 17.7565 40.8963 17.7934 41.0071C17.9094 41.334 18.0465 41.6557 18.21 41.9616C18.2838 42.1039 18.3629 42.241 18.4367 42.3834L18.5053 42.4836C18.5791 42.6155 18.6582 42.7473 18.7373 42.8739L18.7479 42.8897C18.8375 43.0373 18.9377 43.1797 19.0326 43.3221L19.0484 43.3432C19.1486 43.4803 19.2488 43.6227 19.3543 43.7598C19.7445 45.2838 20.4617 46.7024 21.4479 47.9258C21.2949 48.1948 21.1578 48.4584 21.0049 48.7221C20.467 49.5026 20.024 50.341 19.6813 51.2217C19.5389 51.6752 19.502 52.1551 19.5811 52.6244C19.6549 53.099 19.8975 53.5262 20.2666 53.8373C20.5145 54.0272 20.7992 54.159 21.0998 54.2223C21.4004 54.2856 21.7115 54.3172 22.0227 54.3014C23.1934 54.2117 24.3535 53.9797 25.4715 53.6211C26.1465 53.4418 26.8215 53.2836 27.507 53.1465C28.2189 52.983 28.9414 52.8828 29.6691 52.8512C29.8484 52.8565 30.0277 52.8459 30.2018 52.8354C30.6975 52.8881 31.1932 52.9092 31.6941 52.8881L31.8787 52.8776C32.0053 52.8934 32.1371 52.8987 32.2689 52.9092C33.1443 52.9567 34.0145 53.0463 34.8793 53.1782C35.6387 53.2942 36.3981 53.4418 37.1469 53.6264C38.3018 53.9744 39.4883 54.2065 40.6959 54.3067C41.0123 54.3225 41.3287 54.2961 41.6451 54.2328C41.9563 54.1696 42.2516 54.0324 42.5047 53.8426C42.8738 53.5367 43.1164 53.1096 43.1955 52.635C43.2746 52.1657 43.2377 51.6858 43.0953 51.2323C42.7473 50.3516 42.299 49.5131 41.7506 48.7379C41.5607 48.4162 41.3814 48.084 41.1916 47.7623C42.009 46.85 42.7314 45.8481 43.3379 44.7828C43.707 44.8039 44.0709 44.7617 44.4242 44.6457C45.3471 44.3346 46.1486 43.7334 46.7076 42.9319C46.8764 42.6946 47.0082 42.4309 47.0873 42.1514C47.4512 41.5871 47.699 40.9543 47.815 40.2899C47.9838 39.193 47.9574 38.0698 47.7359 36.9834H47.7254Z" fill="#020204"/>
<path d="M27.4437 22.0438C27.2803 22.2547 27.1643 22.5026 27.1062 22.761C27.0482 23.0194 27.0113 23.2883 27.0061 23.552C27.0219 24.0846 26.9797 24.6172 26.8742 25.1393C26.6896 25.6825 26.4102 26.1834 26.0516 26.6317C25.4346 27.4069 24.9494 28.277 24.6172 29.2051C24.4484 29.7799 24.3904 30.3811 24.4537 30.9823C23.8156 31.9262 23.2619 32.9282 22.8031 33.9723C22.0965 35.5491 21.643 37.2313 21.4584 38.9504C21.2316 41.0651 21.5428 43.2008 22.3549 45.1625C22.9508 46.5758 23.8578 47.8414 25.0074 48.8592C25.598 49.3707 26.2467 49.8032 26.9428 50.1459C29.4055 51.3483 32.29 51.3219 34.7264 50.0721C35.9445 49.3602 37.0572 48.4795 38.0275 47.4618C38.6551 46.8922 39.2141 46.2541 39.7045 45.558C40.5219 44.1395 41.0018 42.5469 41.102 40.9122C41.6082 38.0856 41.2971 35.1746 40.2107 32.5168C39.7836 31.6309 39.2193 30.8188 38.5338 30.1122C38.3492 28.8727 37.9906 27.6654 37.4686 26.5262C37.0889 25.7088 36.6301 24.9284 36.2768 24.0899C36.1344 23.7471 36.0078 23.3991 35.8496 23.0668C35.6967 22.7293 35.4857 22.4182 35.2273 22.1545C34.9479 21.8961 34.6156 21.701 34.2518 21.5903C33.8879 21.4743 33.5135 21.411 33.1338 21.4004C32.3744 21.3635 31.6098 21.4584 30.8609 21.4321C30.2545 21.4057 29.6586 21.3002 29.0521 21.3371C28.7516 21.353 28.451 21.411 28.1715 21.5217C27.8867 21.6325 27.6389 21.8118 27.4437 22.0491M27.6863 15.452C27.4016 15.4731 27.1326 15.5944 26.927 15.7895C26.7213 15.9846 26.5684 16.2325 26.484 16.5014C26.3416 17.0498 26.3047 17.6246 26.3838 18.1889C26.3943 18.7004 26.484 19.212 26.6527 19.6971C26.7477 19.9344 26.8848 20.1559 27.0641 20.3405C27.2434 20.525 27.4701 20.6621 27.718 20.7254C27.9553 20.7834 28.2031 20.7729 28.4299 20.6991C28.6566 20.6252 28.8676 20.4987 29.0363 20.3299C29.2842 20.0768 29.4635 19.7657 29.5531 19.4282C29.6428 19.0907 29.685 18.7373 29.6744 18.384C29.6744 17.9463 29.6059 17.5086 29.474 17.0868C29.3422 16.6649 29.1154 16.2799 28.8096 15.9582C28.6619 15.8053 28.4932 15.6735 28.3033 15.5786C28.1082 15.4889 27.8973 15.4414 27.6863 15.452ZM32.6961 15.452C32.2426 15.7473 31.8945 16.1797 31.6994 16.686C31.499 17.3399 31.5307 18.036 31.7785 18.6741C31.9842 19.3438 32.3955 19.9291 32.9492 20.351C33.234 20.5514 33.5609 20.678 33.909 20.7202C34.257 20.7623 34.6051 20.7043 34.9162 20.5461C35.2853 20.3405 35.5807 20.0188 35.7547 19.6338C35.9234 19.2436 36.0184 18.827 36.0289 18.4051C36.0658 17.8672 35.9973 17.3293 35.8285 16.8178C35.6439 16.2588 35.2853 15.7789 34.8002 15.452C34.5523 15.2938 34.2781 15.1883 33.9881 15.1461C33.698 15.1039 33.4027 15.1356 33.1285 15.2411C32.9756 15.3043 32.8279 15.3834 32.6908 15.4784" fill="white"/>
<path d="M33.7139 16.7914C33.5451 16.8019 33.3869 16.8546 33.2445 16.9443C33.1022 17.0339 32.9809 17.1552 32.886 17.2923C32.7067 17.5718 32.6065 17.8988 32.6012 18.2363C32.5854 18.4841 32.6223 18.7373 32.7014 18.9746C32.7805 19.2119 32.9281 19.4228 33.118 19.581C33.3184 19.7445 33.561 19.8394 33.8194 19.8552C34.0778 19.8658 34.3309 19.7972 34.5418 19.6496C34.7106 19.5283 34.8477 19.3753 34.9426 19.1908C35.0375 19.0115 35.0955 18.8111 35.1219 18.6107C35.1746 18.2521 35.1113 17.883 34.9531 17.5613C34.7897 17.2343 34.5102 16.9865 34.1727 16.8546C34.025 16.7966 33.8721 16.7755 33.7139 16.7808" fill="#020204"/>
<path d="M27.6863 15.4573C27.4015 15.4784 27.1326 15.5996 26.9269 15.7948C26.7213 15.9899 26.5683 16.2377 26.484 16.5067C26.3416 17.0551 26.3047 17.6299 26.3838 18.1942C26.3943 18.7057 26.484 19.2172 26.6527 19.7024C26.7476 19.945 26.8847 20.1612 27.064 20.3457C27.2433 20.5303 27.4701 20.6674 27.718 20.7307C27.9553 20.7887 28.2031 20.7782 28.4299 20.7043C28.6566 20.6305 28.8676 20.5039 29.0363 20.3352C29.2842 20.0821 29.4635 19.7709 29.5531 19.4334C29.6428 19.0959 29.6849 18.7426 29.6744 18.3893C29.6744 17.9516 29.6058 17.5139 29.474 17.092C29.3422 16.6702 29.1154 16.2852 28.8096 15.9635C28.6619 15.8106 28.4931 15.6787 28.3033 15.5838C28.1082 15.4942 27.8973 15.4467 27.6863 15.4573Z" fill="white"/>
<path d="M27.0061 17.8039C26.9375 18.1572 26.9533 18.5263 27.0641 18.8691C27.1484 19.0959 27.275 19.3015 27.4438 19.4756C27.5492 19.5916 27.6705 19.6918 27.8129 19.7603C27.9553 19.8341 28.1135 19.8552 28.2717 19.8183C28.4141 19.7814 28.5354 19.697 28.625 19.581C28.7147 19.465 28.7779 19.3332 28.8201 19.1961C28.9414 18.7847 28.9309 18.347 28.799 17.9357C28.7147 17.6351 28.5512 17.3609 28.3191 17.1552C28.2084 17.0603 28.0713 16.9865 27.9289 16.9496C27.7813 16.9127 27.6283 16.9232 27.4859 16.9865C27.3383 17.0603 27.217 17.1816 27.1432 17.3293C27.0693 17.4769 27.0219 17.6351 27.0008 17.7986" fill="#020204"/>
<path d="M26.3363 22.2388C26.3469 22.2863 26.3627 22.3337 26.389 22.3707C26.4365 22.4445 26.4945 22.5025 26.5683 22.5499C26.6369 22.5974 26.7054 22.6396 26.774 22.6818C27.1379 22.9296 27.4595 23.2355 27.7179 23.5941C28.0343 24.0898 28.4299 24.5328 28.8781 24.9125C29.2209 25.1498 29.6217 25.2921 30.0383 25.3291C30.5234 25.366 31.0138 25.308 31.4832 25.1603C31.9156 25.0337 32.3322 24.8544 32.7224 24.6171C33.3922 24.0792 34.1094 23.6046 34.8687 23.2091C35.048 23.1458 35.2273 23.0984 35.3961 23.0193C35.5701 22.9455 35.7177 22.8189 35.8074 22.6501C35.8654 22.4814 35.9023 22.3021 35.9076 22.1228C35.934 21.933 35.9972 21.7484 36.0289 21.5585C36.0711 21.3687 36.0552 21.1736 35.9867 20.989C35.9129 20.8466 35.7968 20.7306 35.6545 20.6568C35.5121 20.5882 35.3539 20.546 35.1957 20.5408C34.874 20.5513 34.5576 20.583 34.2465 20.6357C33.8246 20.6726 33.4027 20.6199 32.9808 20.6357C32.4588 20.6515 31.9367 20.7675 31.4093 20.7886C30.8082 20.8203 30.2123 20.7253 29.6111 20.699C29.3527 20.6832 29.089 20.6937 28.8306 20.7359C28.5722 20.7728 28.3244 20.8677 28.1082 21.0154C27.9078 21.1736 27.7232 21.3423 27.5439 21.5216C27.449 21.606 27.3435 21.6798 27.2328 21.7378C27.1168 21.7958 26.9955 21.8275 26.8636 21.8222C26.8004 21.8117 26.7318 21.8117 26.6685 21.8222C26.6316 21.838 26.5947 21.8591 26.5683 21.8855L26.4892 21.9804C26.4365 22.0595 26.389 22.1439 26.3521 22.2283" fill="#D99A03"/>
<path d="M27.66 20.91C27.449 21.0366 27.2434 21.1737 27.0377 21.3161C26.927 21.3846 26.8373 21.4743 26.7688 21.585C26.7319 21.6694 26.716 21.759 26.7213 21.8487C26.7266 21.9383 26.7266 22.028 26.7213 22.1176C26.716 22.1756 26.6949 22.2389 26.6949 22.3022C26.6949 22.3338 26.6949 22.3655 26.7055 22.3918C26.716 22.4235 26.7266 22.4498 26.7477 22.4709C26.774 22.4973 26.811 22.5184 26.8531 22.529C26.8901 22.5395 26.9323 22.5448 26.9744 22.5553C27.159 22.6081 27.3278 22.7082 27.4649 22.8401C27.6073 22.9666 27.7338 23.1143 27.8867 23.2356C28.3086 23.552 28.8201 23.7155 29.3422 23.7102C29.8643 23.6997 30.3811 23.6258 30.8821 23.494C31.2776 23.4096 31.6678 23.3041 32.0475 23.1723C32.6381 22.9508 33.1813 22.6291 33.6506 22.2125C33.8563 22.0122 34.0725 21.8329 34.3045 21.6694C34.5155 21.5375 34.7633 21.4479 34.9742 21.3213C34.9953 21.3108 35.0112 21.295 35.0323 21.2844C35.0481 21.2686 35.0639 21.2528 35.0744 21.2317C35.0903 21.1948 35.0903 21.1526 35.0744 21.1157C35.0639 21.0788 35.0481 21.0471 35.027 21.0207C35.0006 20.9891 34.969 20.9575 34.9373 20.9311C34.6948 20.7518 34.4047 20.6516 34.1041 20.6411C33.7983 20.62 33.5082 20.6411 33.2129 20.5831C32.9387 20.525 32.6698 20.4459 32.4061 20.351C32.1266 20.2614 31.8418 20.1928 31.5465 20.1454C30.861 20.0346 30.1649 20.0504 29.4846 20.1981C28.8465 20.3405 28.2295 20.5831 27.66 20.91Z" fill="#604405"/>
<path d="M27.5914 20.1927C27.2855 20.3984 27.0113 20.6515 26.774 20.9363C26.6369 21.0945 26.5262 21.2791 26.4523 21.4794C26.4049 21.6377 26.3732 21.8011 26.3469 21.9646C26.331 22.0226 26.3205 22.0859 26.3205 22.1492C26.3205 22.1808 26.3258 22.2125 26.3363 22.2388C26.3469 22.2705 26.3627 22.2968 26.3838 22.3179C26.4207 22.3548 26.4682 22.3759 26.5209 22.3865C26.5683 22.397 26.6211 22.397 26.6738 22.4023C26.9058 22.4392 27.1221 22.5341 27.3119 22.6712C27.5017 22.8031 27.681 22.956 27.8762 23.0826C28.3191 23.3462 28.8254 23.4886 29.3422 23.4992C29.859 23.5097 30.3705 23.457 30.8715 23.3462C31.2723 23.2724 31.6678 23.1617 32.0527 23.014C32.6275 22.7662 33.1654 22.4445 33.6558 22.0543C33.8826 21.8855 34.1041 21.7062 34.3098 21.5111C34.3783 21.4425 34.4469 21.374 34.5207 21.3107C34.5945 21.2474 34.6789 21.2 34.7685 21.1683C34.9109 21.1314 35.0586 21.1261 35.2062 21.163C35.3117 21.1894 35.4225 21.2 35.5332 21.2C35.5912 21.2 35.6439 21.1894 35.6967 21.1736C35.7494 21.1525 35.7969 21.1209 35.8285 21.0787C35.876 21.0207 35.8971 20.9521 35.8971 20.8783C35.8971 20.8044 35.876 20.7359 35.8391 20.6726C35.7599 20.5513 35.6387 20.4564 35.5068 20.4037C35.3223 20.3298 35.1324 20.2718 34.9373 20.2349C34.3414 20.0925 33.7613 19.8816 33.2129 19.6074C32.9387 19.4703 32.6803 19.3226 32.406 19.1802C32.1318 19.0273 31.8471 18.8955 31.5517 18.8005C30.8715 18.616 30.149 18.6476 29.4898 18.8955C28.7516 19.1539 28.0924 19.6021 27.5861 20.198" fill="#F5BD0C"/>
<path d="M31.0244 19.3543C31.0613 19.4756 31.2512 19.4545 31.3619 19.5073C31.4726 19.56 31.5359 19.6602 31.6414 19.6707C31.7521 19.6813 31.9051 19.6338 31.9209 19.5336C31.942 19.3965 31.7416 19.3121 31.615 19.2647C31.4463 19.1856 31.2564 19.1803 31.0877 19.2541C31.0508 19.27 31.0138 19.3174 31.0244 19.3543ZM29.2103 19.291C29.0679 19.2436 28.8359 19.4914 28.9045 19.6233C28.9256 19.6602 28.9888 19.7024 29.031 19.6813C29.0732 19.6602 29.1523 19.5178 29.2209 19.4703C29.2736 19.4282 29.2631 19.3069 29.2103 19.291Z" fill="#CD8907"/>
<path d="M51.8123 48.759C51.7069 49.0332 51.5539 49.2864 51.3641 49.5131C50.9211 49.9877 50.3832 50.3674 49.7926 50.6311C48.7907 51.0952 47.8151 51.612 46.8659 52.1762C46.2489 52.5875 45.6741 53.0516 45.1414 53.5684C44.7037 54.0272 44.2344 54.4491 43.7387 54.8446C43.2219 55.2243 42.626 55.4827 41.9932 55.5829C41.218 55.683 40.4323 55.5618 39.7203 55.2401C39.2088 55.045 38.7659 54.7022 38.4547 54.2487C38.191 53.7635 38.0698 53.2204 38.0961 52.6719C38.1278 51.7069 38.2438 50.7471 38.4442 49.7979C38.5813 49.0069 38.7184 48.2159 38.8028 47.4196C38.9504 45.9641 38.9662 44.5034 38.8555 43.0479C38.8291 42.8053 38.8291 42.5575 38.8555 42.3149C38.8871 41.8192 39.3037 41.4395 39.8047 41.4448C40.0315 41.4395 40.2582 41.4606 40.4797 41.5028C41.0071 41.5661 41.5344 41.6557 42.0512 41.777C42.3729 41.8614 42.6946 41.9774 43.0162 42.067C43.5541 42.2252 44.1237 42.2727 44.6826 42.22C45.268 42.0829 45.8639 41.9932 46.4651 41.9405C46.7129 41.951 46.9608 41.9932 47.1928 42.067C47.4354 42.1356 47.6621 42.2569 47.8467 42.4309C47.9785 42.5733 48.084 42.7368 48.1526 42.9161C48.2528 43.185 48.316 43.4645 48.3371 43.7493C48.3477 44.0024 48.3688 44.2555 48.4004 44.5086C48.4901 44.9147 48.6852 45.2944 48.9594 45.6108C49.2389 45.9166 49.5395 46.2014 49.8664 46.4545C50.1776 46.7287 50.5045 46.9819 50.8473 47.2139C51.0108 47.3246 51.1743 47.4248 51.3272 47.5461C51.4854 47.6621 51.6172 47.8098 51.7174 47.9786C51.844 48.2106 51.8862 48.4795 51.8229 48.7379" fill="#F5BD0C"/>
<path d="M51.8123 48.759C51.7068 49.0332 51.5539 49.2863 51.3641 49.5131C50.9211 49.9877 50.3832 50.3674 49.7926 50.631C48.7906 51.0951 47.815 51.6119 46.8658 52.1761C46.2488 52.5875 45.674 53.0515 45.1414 53.5683C44.7037 54.0271 44.2344 54.449 43.7387 54.8445C43.2219 55.2242 42.626 55.4826 41.9932 55.5828C41.218 55.683 40.4322 55.5617 39.7203 55.24C39.2088 55.0449 38.7658 54.7021 38.4547 54.2486C38.191 53.7635 38.0697 53.2203 38.0961 52.6719C38.1277 51.7068 38.2437 50.747 38.4441 49.7978C38.5812 49.0068 38.7184 48.2158 38.8027 47.4195C38.9504 45.964 38.9662 44.5033 38.8555 43.0478C38.8291 42.8053 38.8291 42.5574 38.8555 42.3148C38.8871 41.8191 39.3037 41.4394 39.8047 41.4447C40.0314 41.4394 40.2582 41.4605 40.4797 41.5027C41.007 41.566 41.5344 41.6556 42.0512 41.7769C42.3728 41.8613 42.6945 41.9773 43.0162 42.067C43.5541 42.2252 44.1236 42.2726 44.6826 42.2199C45.268 42.0828 45.8639 41.9931 46.465 41.9404C46.7129 41.951 46.9607 41.9931 47.1928 42.067C47.4353 42.1355 47.6621 42.2568 47.8467 42.4308C47.9785 42.5732 48.084 42.7367 48.1525 42.916C48.2527 43.1849 48.316 43.4644 48.3371 43.7492C48.3476 44.0023 48.3687 44.2554 48.4004 44.5086C48.49 44.9146 48.6851 45.2943 48.9594 45.6107C49.2389 45.9166 49.5394 46.2013 49.8664 46.4545C50.1775 46.7287 50.5045 46.9818 50.8473 47.2138C51.0107 47.3246 51.1742 47.4248 51.3271 47.5461C51.4853 47.6621 51.6172 47.8097 51.7174 47.9785C51.8439 48.2105 51.8861 48.4795 51.8228 48.7379M18.6793 40.6642C18.9377 40.564 19.2172 40.5377 19.4914 40.5904C19.7656 40.6431 20.024 40.7539 20.2508 40.9121C20.6885 41.2443 21.0682 41.6556 21.3687 42.1144C22.1123 43.1375 22.8242 44.1816 23.4728 45.2679C24.0002 46.1486 24.4801 47.0556 25.0865 47.8836C25.482 48.4215 25.9303 48.9224 26.331 49.4603C26.7477 49.9877 27.0641 50.5888 27.2592 51.2269C27.4912 52.076 27.3963 52.9777 27.0008 53.7635C26.716 54.3119 26.2889 54.7707 25.7668 55.0871C25.2394 55.4035 24.633 55.5617 24.016 55.5459C23.0457 55.414 22.107 55.1187 21.2422 54.6705C19.4018 53.9375 17.4031 53.7054 15.5047 53.1359C14.9193 52.9619 14.3498 52.751 13.7592 52.5928C13.4955 52.5295 13.2371 52.4504 12.984 52.3449C12.7361 52.2394 12.5199 52.0601 12.3775 51.8334C12.2721 51.6488 12.2193 51.4379 12.2246 51.2269C12.2299 51.016 12.2721 50.8103 12.3459 50.6205C12.4883 50.225 12.7203 49.8717 12.8732 49.4814C13.1053 48.8381 13.1949 48.1472 13.1369 47.467C13.1053 46.7867 12.984 46.1064 12.9471 45.4261C12.9154 45.1203 12.926 44.8144 12.9787 44.5138C13.0578 43.9127 13.5271 43.4328 14.1336 43.3431C14.4131 43.2957 14.6926 43.2746 14.9721 43.2904C15.2516 43.3062 15.5363 43.3062 15.8158 43.2904C16.0953 43.2746 16.3748 43.1955 16.6226 43.0636C16.8494 42.9265 17.0498 42.7367 17.2027 42.5152C17.3557 42.2937 17.4928 42.067 17.6193 41.8297C17.7459 41.5924 17.8883 41.3709 18.057 41.1599C18.2152 40.9437 18.4314 40.7803 18.6793 40.6642Z" fill="#F5BD0C"/>
<path d="M18.6793 40.6695C18.9377 40.5693 19.2172 40.5429 19.4914 40.5957C19.7656 40.6484 20.024 40.7591 20.2508 40.9173C20.6885 41.2496 21.0682 41.6609 21.3687 42.1197C22.1123 43.1427 22.8242 44.1869 23.4728 45.2732C24.0002 46.1539 24.4801 47.0609 25.0865 47.8888C25.482 48.4267 25.9303 48.9277 26.331 49.4656C26.7477 49.9929 27.0641 50.5941 27.2592 51.2322C27.4912 52.0812 27.3963 52.983 27.0008 53.7687C26.716 54.3171 26.2889 54.7759 25.7668 55.0923C25.2394 55.4087 24.633 55.5669 24.016 55.5511C23.0457 55.4193 22.107 55.124 21.2422 54.6757C19.4018 53.9427 17.4031 53.7107 15.5047 53.1412C14.9193 52.9671 14.3498 52.7562 13.7592 52.598C13.4955 52.5347 13.2371 52.4556 12.984 52.3502C12.7361 52.2447 12.5199 52.0654 12.3775 51.8386C12.2721 51.6541 12.2193 51.4431 12.2246 51.2322C12.2299 51.0212 12.2721 50.8156 12.3459 50.6257C12.4883 50.2302 12.7203 49.8769 12.8732 49.4867C13.1053 48.8433 13.1949 48.1525 13.1369 47.4722C13.1053 46.7919 12.984 46.1169 12.9471 45.4314C12.9154 45.1255 12.926 44.8197 12.9787 44.5191C13.0578 43.9179 13.5271 43.438 14.1336 43.3484C14.4131 43.3009 14.6926 43.2798 14.9721 43.2957C15.2516 43.3115 15.5363 43.3115 15.8158 43.2957C16.0953 43.2798 16.3748 43.2007 16.6226 43.0689C16.8494 42.9318 17.0498 42.7419 17.2027 42.5205C17.3557 42.299 17.4928 42.0722 17.6193 41.8349C17.7459 41.5976 17.8883 41.3761 18.057 41.1652C18.2152 40.949 18.4314 40.7802 18.6793 40.6695Z" fill="#F5BD0C"/>
<path d="M19.0853 41.1125C19.3174 41.0229 19.5758 41.0071 19.8184 41.0651C20.0609 41.1231 20.2877 41.2338 20.4828 41.392C20.8572 41.719 21.1736 42.1092 21.4109 42.5469C22.0437 43.5699 22.6607 44.6035 23.2355 45.6582C23.6521 46.4651 24.1215 47.2455 24.6383 47.9891C24.9969 48.4742 25.4082 48.9172 25.7773 49.3918C26.1623 49.8612 26.4523 50.3938 26.6316 50.9686C26.8426 51.7227 26.7529 52.5295 26.3943 53.2309C26.1307 53.7266 25.7351 54.1432 25.25 54.4227C24.7648 54.7074 24.2059 54.8446 23.6469 54.8182C22.7662 54.6811 21.9119 54.4174 21.1051 54.0324C19.5019 53.4471 17.7564 53.3733 16.1111 52.9145C15.5205 52.7563 14.9457 52.5401 14.3498 52.3924C14.0861 52.3344 13.8225 52.2606 13.5693 52.1657C13.3162 52.0707 13.0947 51.8914 12.9471 51.6647C12.8521 51.4854 12.8047 51.285 12.8152 51.0846C12.8258 50.8842 12.868 50.6838 12.9418 50.494C13.0842 50.1196 13.3109 49.7768 13.4533 49.4024C13.6537 48.8223 13.7223 48.2106 13.659 47.5989C13.6168 46.9924 13.506 46.3912 13.4744 45.7795C13.4533 45.5106 13.4639 45.2364 13.5113 44.9674C13.5588 44.6985 13.6853 44.4506 13.8752 44.2502C14.0967 44.0498 14.3709 43.918 14.6662 43.8811C14.9615 43.8442 15.2568 43.8442 15.5469 43.8811C15.8422 43.918 16.1375 43.9285 16.4328 43.9233C17.0129 43.9233 17.5402 43.5858 17.7881 43.0584C17.9094 42.8211 18.0148 42.5733 18.0992 42.3254C18.1889 42.0723 18.3102 41.835 18.4525 41.6082C18.6002 41.3815 18.8111 41.2022 19.059 41.0967" fill="#F5BD0C"/>
</svg>
