<svg width="42" height="42" viewBox="0 0 42 42" fill="none" xmlns="http://www.w3.org/2000/svg">
<path d="M6.54127 7.00449C5.55888 5.10882 6.90327 2.625 9.03837 2.625H32.9616C35.0967 2.625 36.4411 5.10882 35.4587 7.00449C33.6267 10.5397 31.5 15.7699 31.5 21C31.5 26.2301 33.6267 31.4603 35.4587 34.9955C36.4411 36.8912 35.0967 39.375 32.9616 39.375H9.03837C6.90327 39.375 5.55888 36.8912 6.54127 34.9955C8.37333 31.4603 10.5 26.2301 10.5 21C10.5 15.7699 8.37333 10.5397 6.54127 7.00449Z" fill="#DD3332"/>
<path fill-rule="evenodd" clip-rule="evenodd" d="M2.35623 8.76214C3.31606 8.25129 4.50828 8.61526 5.01914 9.57509L3.28121 10.5001C5.01914 9.57509 5.01891 9.57465 5.01914 9.57509L5.02131 9.57918L5.02444 9.5851L5.03351 9.60237L5.06244 9.65829C5.08637 9.70494 5.11938 9.7702 5.16016 9.853C5.2417 10.0186 5.35452 10.2547 5.48809 10.5529C5.75485 11.1484 6.10657 11.9963 6.45756 13.028C7.15409 15.0754 7.87496 17.9254 7.87496 21.0001C7.87496 24.0748 7.15409 26.9247 6.45756 28.9721C6.10657 30.0038 5.75485 30.8518 5.48809 31.4473C5.35452 31.7455 5.2417 31.9816 5.16016 32.1471C5.11938 32.2299 5.08637 32.2952 5.06244 32.3418L5.03351 32.3978L5.02444 32.415L5.02131 32.421L5.0201 32.4232C5.01987 32.4237 5.01914 32.4251 3.28121 31.5001L5.01914 32.4251C4.50828 33.3849 3.31606 33.7488 2.35623 33.238C1.39728 32.7276 1.0331 31.5371 1.54189 30.5777C1.54195 30.5776 1.54183 30.5778 1.54189 30.5777L1.54256 30.5765C1.54269 30.5762 1.54316 30.5753 1.54329 30.5751L1.54398 30.5737L1.55894 30.5448C1.57347 30.5165 1.59686 30.4703 1.62785 30.4074C1.68987 30.2815 1.78213 30.0888 1.89465 29.8376C2.12007 29.3344 2.4246 28.6013 2.72987 27.704C3.34584 25.8934 3.93746 23.4933 3.93746 21.0001C3.93746 18.5068 3.34584 16.1068 2.72987 14.2962C2.4246 13.3989 2.12007 12.6658 1.89465 12.1625C1.78213 11.9113 1.68987 11.7187 1.62785 11.5927C1.59686 11.5298 1.57347 11.4837 1.55894 11.4553L1.54398 11.4264L1.54329 11.4251C1.54316 11.4248 1.54342 11.4253 1.54329 11.4251M2.35623 8.76214C1.39665 9.27287 1.03301 10.4653 1.54329 11.4251Z" fill="#F15C5B"/>
<path fill-rule="evenodd" clip-rule="evenodd" d="M39.6437 8.76214C38.6839 8.25129 37.4917 8.61526 36.9808 9.57509L38.7187 10.5001C36.9808 9.57509 36.981 9.57465 36.9808 9.57509L36.9786 9.57918L36.9755 9.5851L36.9664 9.60237L36.9375 9.65829C36.9136 9.70494 36.8806 9.7702 36.8398 9.853C36.7582 10.0186 36.6454 10.2547 36.5118 10.5529C36.2451 11.1484 35.8934 11.9963 35.5424 13.028C34.8459 15.0754 34.125 17.9254 34.125 21.0001C34.125 24.0748 34.8459 26.9247 35.5424 28.9721C35.8934 30.0038 36.2451 30.8518 36.5118 31.4473C36.6454 31.7455 36.7582 31.9816 36.8398 32.1471C36.8806 32.2299 36.9136 32.2952 36.9375 32.3418L36.9664 32.3978L36.9755 32.415L36.9786 32.421L36.9798 32.4232C36.9801 32.4237 36.9808 32.4251 38.7187 31.5001L36.9808 32.4251C37.4917 33.3849 38.6839 33.7488 39.6437 33.238C40.6027 32.7276 40.9668 31.5371 40.458 30.5777C40.458 30.5776 40.4581 30.5778 40.458 30.5777L40.4574 30.5765C40.4572 30.5762 40.4568 30.5753 40.4567 30.5751L40.456 30.5737L40.441 30.5448C40.4265 30.5165 40.4031 30.4703 40.3721 30.4074C40.3101 30.2815 40.2178 30.0888 40.1053 29.8376C39.8799 29.3344 39.5753 28.6013 39.2701 27.704C38.6541 25.8934 38.0625 23.4933 38.0625 21.0001C38.0625 18.5068 38.6541 16.1068 39.2701 14.2962C39.5753 13.3989 39.8799 12.6658 40.1053 12.1625C40.2178 11.9113 40.3101 11.7187 40.3721 11.5927C40.4031 11.5298 40.4265 11.4837 40.441 11.4553L40.456 11.4264L40.4567 11.4251C40.4568 11.4248 40.4565 11.4253 40.4567 11.4251M39.6437 8.76214C40.6033 9.27287 40.9669 10.4653 40.4567 11.4251Z" fill="#F15C5B"/>
<path d="M23.8438 13.75C26.1392 13.75 28 15.6108 28 17.9062C28 20.2017 26.1392 22.0625 23.8438 22.0625H22.0625V28H17.9062C15.6108 28 13.75 26.1392 13.75 23.8438C13.75 21.5483 15.6108 19.6875 17.9062 19.6875H19.6875V13.75H23.8438ZM17.9062 22.0625C16.9225 22.0625 16.125 22.86 16.125 23.8438C16.125 24.8275 16.9225 25.625 17.9062 25.625H19.6875V22.0625H17.9062ZM22.0625 19.6875H23.8438C24.8275 19.6875 25.625 18.89 25.625 17.9062C25.625 16.9225 24.8275 16.125 23.8438 16.125H22.0625V19.6875Z" fill="#FEF1F1"/>
</svg>
