<svg width="42" height="42" viewBox="0 0 42 42" fill="none" xmlns="http://www.w3.org/2000/svg">
<path d="M2.625 34.125C2.625 36.2996 4.38788 38.0625 6.5625 38.0625" stroke="#3FB68C" stroke-width="2.625" stroke-linecap="round"/>
<path d="M26.25 1.3125C28.4246 1.3125 30.1875 3.07538 30.1875 5.25V9.1875H14.4375C11.538 9.1875 9.1875 11.538 9.1875 14.4375V30.1875H5.25C3.07538 30.1875 1.3125 28.4246 1.3125 26.25V5.25C1.3125 3.07538 3.07538 1.3125 5.25 1.3125H26.25Z" fill="#3FB68C"/>
<path d="M8.45302 16.6544C8.69719 16.5647 8.95091 16.5524 9.18739 16.6046V20.5304C8.3938 19.8375 7.93115 19.0371 7.6747 18.34C7.42449 17.6597 7.77282 16.9047 8.45302 16.6544ZM9.11024 7.25893C10.3137 6.01714 12.2348 5.39509 14.5556 5.60171C16.1311 5.742 17.3012 6.27166 18.1395 7.00991C18.9343 7.70986 19.3513 8.52909 19.5712 9.18764H16.6102C16.5479 9.11663 16.48 9.04643 16.4042 8.97964C16.0345 8.65419 15.4109 8.31387 14.3231 8.21694C12.5657 8.06047 11.5082 8.55772 10.996 9.08608C10.5151 9.58243 10.3949 10.2069 10.6386 10.8156C9.98035 11.5058 9.50709 12.3741 9.30165 13.3419C8.87405 12.9647 8.50437 12.4971 8.24989 11.9103C7.54959 10.2954 7.88893 8.5193 9.11024 7.25893Z" fill="#BCF1DE"/>
<rect x="11.8125" y="11.8125" width="28.875" height="28.875" rx="3.9375" fill="#109968"/>
<path d="M29.7676 18.3809C32.1948 18.5039 34.125 20.511 34.125 22.9688L34.1191 23.2051C34.0001 25.554 32.1165 27.4376 29.7676 27.5566L29.5312 27.5625H27.5625V34.125H22.9688L22.7324 34.1191C20.3835 34.0001 18.4999 32.1165 18.3809 29.7676L18.375 29.5312C18.375 27.0735 20.3052 25.0664 22.7324 24.9434L22.9688 24.9375H24.9375V18.375H29.5312L29.7676 18.3809ZM22.9688 27.5625C21.8814 27.5625 21 28.4439 21 29.5312C21 30.6186 21.8814 31.5 22.9688 31.5H24.9375V27.5625H22.9688ZM27.5625 24.9375H29.5312C30.6186 24.9375 31.5 24.0561 31.5 22.9688C31.5 21.8814 30.6186 21 29.5312 21H27.5625V24.9375Z" fill="#BCF1DE"/>
</svg>
