<svg width="42" height="42" viewBox="0 0 42 42" fill="none" xmlns="http://www.w3.org/2000/svg">
<path d="M2.625 34.125C2.625 36.2996 4.38788 38.0625 6.5625 38.0625" stroke="#3BB3C3" stroke-width="2.625" stroke-linecap="round"/>
<path d="M26.25 1.3125C28.4246 1.3125 30.1875 3.07538 30.1875 5.25V9.1875H14.4375C11.538 9.1875 9.1875 11.538 9.1875 14.4375V30.1875H5.25C3.07538 30.1875 1.3125 28.4246 1.3125 26.25V5.25C1.3125 3.07538 3.07538 1.3125 5.25 1.3125H26.25Z" fill="#3BB3C3"/>
<path d="M8.29282 7.29365C8.68334 6.90313 9.31636 6.90313 9.70688 7.29365C10.0971 7.6842 10.0973 8.31729 9.70688 8.70771L6.41391 12.0007L9.18735 14.7741V16.9821C8.87332 17.0417 8.53595 16.9507 8.29282 16.7077L4.29282 12.7077C3.90243 12.3173 3.90269 11.6842 4.29282 11.2937L8.29282 7.29365ZM16.5457 3.70283C16.7104 3.17579 17.2706 2.88206 17.7977 3.04658C18.3247 3.21133 18.6185 3.77151 18.454 4.29853L16.9266 9.18721H14.8319L16.5457 3.70283ZM20.2928 7.29365C20.6833 6.90313 21.3164 6.90313 21.7069 7.29365L23.6004 9.18721H20.7723L20.2928 8.70771C19.9024 8.31732 19.9027 7.68421 20.2928 7.29365Z" fill="#C4EEF3"/>
<path d="M11.8125 15.75C11.8125 13.5754 13.5754 11.8125 15.75 11.8125H36.75C38.9246 11.8125 40.6875 13.5754 40.6875 15.75V36.75C40.6875 38.9246 38.9246 40.6875 36.75 40.6875H15.75C13.5754 40.6875 11.8125 38.9246 11.8125 36.75V15.75Z" fill="#009BB0"/>
<path d="M29.7676 18.3809C32.1948 18.5039 34.125 20.511 34.125 22.9688L34.1191 23.2051C34.0001 25.554 32.1165 27.4376 29.7676 27.5566L29.5312 27.5625H27.5625V34.125H22.9688L22.7324 34.1191C20.3835 34.0001 18.4999 32.1165 18.3809 29.7676L18.375 29.5312C18.375 27.0735 20.3052 25.0664 22.7324 24.9434L22.9688 24.9375H24.9375V18.375H29.5312L29.7676 18.3809ZM22.9688 27.5625C21.8814 27.5625 21 28.4439 21 29.5312C21 30.6186 21.8814 31.5 22.9688 31.5H24.9375V27.5625H22.9688ZM27.5625 24.9375H29.5312C30.6186 24.9375 31.5 24.0561 31.5 22.9688C31.5 21.8814 30.6186 21 29.5312 21H27.5625V24.9375Z" fill="#E6F6F8"/>
</svg>
