<svg width="42" height="42" viewBox="0 0 42 42" fill="none" xmlns="http://www.w3.org/2000/svg">
<path d="M3.9375 34.125C3.9375 36.2996 5.70038 38.0625 7.875 38.0625" stroke="#F15C5B" stroke-width="2.625" stroke-linecap="round"/>
<path fill-rule="evenodd" clip-rule="evenodd" d="M5.25 1.3125C3.07538 1.3125 1.3125 3.07538 1.3125 5.25V26.25C1.3125 28.4246 3.07538 30.1875 5.25 30.1875H9.1875V14.4375C9.1875 11.538 11.538 9.1875 14.4375 9.1875H30.1875V5.25C30.1875 3.07538 28.4246 1.3125 26.25 1.3125H5.25Z" fill="#F15C5B"/>
<path d="M9.47112 12.7335C9.2878 13.2679 9.18694 13.841 9.18694 14.4376V24.9376H6.79436C5.41541 24.9376 4.46362 23.5563 4.95452 22.2677L8.12835 13.9356C8.37019 13.3008 8.88736 12.8858 9.47112 12.7335Z" fill="#FAC1C1"/>
<path d="M8.53125 10.5C9.61856 10.5 10.5 9.61856 10.5 8.53125C10.5 7.44394 9.61856 6.5625 8.53125 6.5625C7.44394 6.5625 6.5625 7.44394 6.5625 8.53125C6.5625 9.61856 7.44394 10.5 8.53125 10.5Z" fill="#FAC1C1"/>
<rect x="11.8125" y="11.8125" width="28.875" height="28.875" rx="3.9375" fill="#DD3332"/>
<path d="M29.7676 18.3809C32.1948 18.5039 34.125 20.511 34.125 22.9688L34.1191 23.2051C34.0001 25.554 32.1165 27.4376 29.7676 27.5566L29.5312 27.5625H27.5625V34.125H22.9688L22.7324 34.1191C20.3835 34.0001 18.4999 32.1165 18.3809 29.7676L18.375 29.5312C18.375 27.0735 20.3052 25.0664 22.7324 24.9434L22.9688 24.9375H24.9375V18.375H29.5312L29.7676 18.3809ZM22.9688 27.5625C21.8814 27.5625 21 28.4439 21 29.5312C21 30.6186 21.8814 31.5 22.9688 31.5H24.9375V27.5625H22.9688ZM27.5625 24.9375H29.5312C30.6186 24.9375 31.5 24.0561 31.5 22.9688C31.5 21.8814 30.6186 21 29.5312 21H27.5625V24.9375Z" fill="#FEF1F1"/>
</svg>
