<svg width="42" height="42" viewBox="0 0 42 42" fill="none" xmlns="http://www.w3.org/2000/svg">
<path d="M24.9375 24.9375C24.9375 27.1121 23.1746 28.875 21 28.875H7.21875H5.25C3.07538 28.875 1.3125 27.1121 1.3125 24.9375V5.25C1.3125 3.07538 3.07538 1.3125 5.25 1.3125H21C23.1746 1.3125 24.9375 3.07538 24.9375 5.25V7.30436V24.9375Z" fill="#9348F3"/>
<path d="M36.75 10.5C38.9246 10.5 40.6875 12.2629 40.6875 14.4375V36.75C40.6875 38.9246 38.9246 40.6875 36.75 40.6875H19.6875C17.5129 40.6875 15.75 38.9246 15.75 36.75V31.5H23.625C25.7996 31.5 27.5625 29.7371 27.5625 27.5625C27.5625 21.875 27.5625 16.1875 27.5625 10.5H36.75Z" fill="#A770F0"/>
<path d="M34.125 25.3746C34.8499 25.3746 35.4375 25.9622 35.4375 26.6871C35.4375 27.4119 34.8499 27.9996 34.125 27.9996H30.7305L35.709 32.9781C36.2215 33.4907 36.2215 34.321 35.709 34.8336C35.1964 35.3461 34.3661 35.3461 33.8535 34.8336L28.875 29.855V33.2496C28.875 33.9744 28.2874 34.5621 27.5625 34.5621C26.8376 34.5621 26.25 33.9744 26.25 33.2496V30.4986C27.0553 29.7776 27.5625 28.73 27.5625 27.564C27.5625 26.8706 27.5625 26.179 27.5625 25.4888C27.768 25.4161 27.9884 25.3746 28.2188 25.3746H34.125Z" fill="#D4BAF6"/>
<path d="M14.4375 8.31207V14.2183C14.4375 14.5808 14.1437 14.8746 13.7812 14.8746H7.875" stroke="#F7F2FE" stroke-width="2.625" stroke-linecap="round"/>
<path d="M13.7812 14.2183L7.21875 7.65582" stroke="#F7F2FE" stroke-width="2.625" stroke-linecap="round"/>
</svg>
