<svg width="42" height="42" viewBox="0 0 42 42" fill="none" xmlns="http://www.w3.org/2000/svg">
<path d="M2.625 34.125C2.625 36.2996 4.38788 38.0625 6.5625 38.0625" stroke="#3FB68C" stroke-width="2.625" stroke-linecap="round"/>
<path d="M26.25 1.3125C28.4246 1.3125 30.1875 3.07538 30.1875 5.25V9.1875H14.4375C11.538 9.1875 9.1875 11.538 9.1875 14.4375V30.1875H5.25C3.07538 30.1875 1.3125 28.4246 1.3125 26.25V5.25C1.3125 3.07538 3.07538 1.3125 5.25 1.3125H26.25Z" fill="#3FB68C"/>
<path d="M9.8916 11.8125C9.44463 12.5849 9.1875 13.4809 9.1875 14.4375V14.5518C8.42321 14.8222 7.875 15.5493 7.875 16.4062C7.875 17.2631 8.42337 17.9892 9.1875 18.2598V20.9521C7.03763 20.6445 5.3677 18.8497 5.25586 16.6426L5.25 16.4062C5.25 13.9485 7.18019 11.9414 9.60742 11.8184L9.84375 11.8125H9.8916ZM16.6426 5.25586C18.8498 5.36771 20.6456 7.03756 20.9531 9.1875H18.2607C17.9903 8.42321 17.2632 7.875 16.4062 7.875H14.4375V9.1875C13.4811 9.1875 12.5848 9.44381 11.8125 9.89062V5.25H16.4062L16.6426 5.25586Z" fill="#BCF1DE"/>
<rect x="11.8125" y="11.8125" width="28.875" height="28.875" rx="3.9375" fill="#109968"/>
<path d="M21 30.763C21.3962 31.7889 22.3733 33.1813 24.7828 33.8204C28.3771 34.7736 32.8125 33.4799 32.8125 30.0755C32.8125 25.4062 23.4079 27.3182 21.6475 23.4519C20.5004 20.9327 22.7181 18.0049 27.5359 18.4134C30.6825 18.6803 31.774 20.3703 32.1526 21.5106" stroke="#E4F6F0" stroke-width="2.625" stroke-linecap="round"/>
</svg>
