<svg width="42" height="42" viewBox="0 0 42 42" fill="none" xmlns="http://www.w3.org/2000/svg">
<path d="M2.625 34.125C2.625 36.2996 4.38788 38.0625 6.5625 38.0625" stroke="#458BFA" stroke-width="2.625" stroke-linecap="round"/>
<path d="M26.25 1.3125C28.4246 1.3125 30.1875 3.07538 30.1875 5.25V9.19336C30.096 9.18885 30.0038 9.1875 29.9111 9.1875H14.7139C11.6618 9.1875 9.1875 11.6618 9.1875 14.7139V29.9111C9.1875 30.0038 9.18983 30.096 9.19434 30.1875H5.25C3.07538 30.1875 1.3125 28.4246 1.3125 26.25V5.25C1.3125 3.07538 3.07538 1.3125 5.25 1.3125H26.25Z" fill="#458BFA"/>
<path d="M9.8916 11.8125C9.44463 12.5849 9.1875 13.4809 9.1875 14.4375V14.5518C8.42321 14.8222 7.875 15.5493 7.875 16.4062C7.875 17.2631 8.42337 17.9892 9.1875 18.2598V20.9521C7.03763 20.6445 5.3677 18.8497 5.25586 16.6426L5.25 16.4062C5.25 13.9485 7.18019 11.9414 9.60742 11.8184L9.84375 11.8125H9.8916ZM16.6426 5.25586C18.8498 5.36771 20.6456 7.03756 20.9531 9.1875H18.2607C17.9903 8.42321 17.2632 7.875 16.4062 7.875H14.4375V9.1875C13.4811 9.1875 12.5848 9.44381 11.8125 9.89062V5.25H16.4062L16.6426 5.25586Z" fill="#D6E6FF"/>
<rect x="11.8125" y="11.8125" width="28.875" height="28.875" rx="3.9375" fill="#1F69E0"/>
<path d="M21.7048 34.125C21.1028 34.125 20.578 33.7155 20.4317 33.1316L17.4714 21.3191C17.2637 20.4905 17.8903 19.6875 18.7445 19.6875H18.9164C19.5301 19.6875 20.0618 20.1128 20.1968 20.7114L22.5502 31.1537L24.7318 21.2988C24.8649 20.6978 25.3977 20.27 26.0133 20.27H26.5371C27.1426 20.27 27.6696 20.6843 27.8125 21.2727L30.2346 31.2435L32.3313 20.743C32.4539 20.1293 32.9926 19.6875 33.6184 19.6875H33.7923C34.6348 19.6875 35.2592 20.4701 35.072 21.2916L32.3803 33.1041C32.2442 33.7013 31.7131 34.125 31.1006 34.125H29.5378C28.9353 34.125 28.4101 33.7147 28.2643 33.13L26.3311 25.3762L24.5232 33.1112C24.3844 33.705 23.855 34.125 23.2452 34.125H21.7048Z" fill="#EDF4FF"/>
</svg>
