<svg width="42" height="42" viewBox="0 0 42 42" fill="none" xmlns="http://www.w3.org/2000/svg">
<path d="M2.625 34.125C2.625 36.2996 4.38788 38.0625 6.5625 38.0625" stroke="#F8B938" stroke-width="2.625" stroke-linecap="round"/>
<path d="M26.25 1.3125C28.4246 1.3125 30.1875 3.07538 30.1875 5.25V9.1875H14.4375C11.538 9.1875 9.1875 11.538 9.1875 14.4375V30.1875H5.25C3.07538 30.1875 1.3125 28.4246 1.3125 26.25V5.25C1.3125 3.07538 3.07538 1.3125 5.25 1.3125H26.25Z" fill="#F8B938"/>
<path d="M9.8916 11.8125C9.44463 12.5849 9.1875 13.4809 9.1875 14.4375V14.5518C8.42321 14.8222 7.875 15.5493 7.875 16.4062C7.875 17.2631 8.42337 17.9892 9.1875 18.2598V20.9521C7.03763 20.6445 5.3677 18.8497 5.25586 16.6426L5.25 16.4062C5.25 13.9485 7.18019 11.9414 9.60742 11.8184L9.84375 11.8125H9.8916ZM16.6426 5.25586C18.8498 5.36771 20.6456 7.03756 20.9531 9.1875H18.2607C17.9903 8.42321 17.2632 7.875 16.4062 7.875H14.4375V9.1875C13.4811 9.1875 12.5848 9.44381 11.8125 9.89062V5.25H16.4062L16.6426 5.25586Z" fill="#F8E4BB"/>
<path d="M11.8125 15.75C11.8125 13.5754 13.5754 11.8125 15.75 11.8125H36.75C38.9246 11.8125 40.6875 13.5754 40.6875 15.75V36.75C40.6875 38.9246 38.9246 40.6875 36.75 40.6875H15.75C13.5754 40.6875 11.8125 38.9246 11.8125 36.75V15.75Z" fill="#E99D00"/>
<path d="M21 34.125V27.5995C21 27.5791 21.0166 27.5625 21.037 27.5625H30.1875C32.3621 27.5625 34.125 25.7996 34.125 23.625C34.125 21.4504 32.3621 19.6875 30.1875 19.6875H21" stroke="#FCF2E0" stroke-width="2.625" stroke-linecap="round"/>
</svg>
