<svg width="42" height="42" viewBox="0 0 42 42" fill="none" xmlns="http://www.w3.org/2000/svg">
<path d="M2.625 34.125C2.625 36.2996 4.38788 38.0625 6.5625 38.0625" stroke="#F8B938" stroke-width="2.625" stroke-linecap="round"/>
<path d="M2.625 34.125C2.625 36.2996 4.38788 38.0625 6.5625 38.0625" stroke="#F15C5B" stroke-width="2.625" stroke-linecap="round"/>
<path d="M26.25 1.3125C28.4246 1.3125 30.1875 3.07538 30.1875 5.25V9.1875H14.4375C11.538 9.1875 9.1875 11.538 9.1875 14.4375V30.1875H5.25C3.07538 30.1875 1.3125 28.4246 1.3125 26.25V5.25C1.3125 3.07538 3.07538 1.3125 5.25 1.3125H26.25Z" fill="#F8B938"/>
<path fill-rule="evenodd" clip-rule="evenodd" d="M5.25 1.3125C3.07538 1.3125 1.3125 3.07538 1.3125 5.25V26.25C1.3125 28.4246 3.07538 30.1875 5.25 30.1875H9.1875V14.4375C9.1875 11.538 11.538 9.1875 14.4375 9.1875H30.1875V5.25C30.1875 3.07538 28.4246 1.3125 26.25 1.3125H5.25Z" fill="#F15C5B"/>
<path d="M9.8916 11.8125C9.44463 12.5849 9.1875 13.4809 9.1875 14.4375V14.5518C8.42321 14.8222 7.875 15.5493 7.875 16.4062C7.875 17.2631 8.42337 17.9892 9.1875 18.2598V20.9521C7.03763 20.6445 5.3677 18.8497 5.25586 16.6426L5.25 16.4062C5.25 13.9485 7.18019 11.9414 9.60742 11.8184L9.84375 11.8125H9.8916ZM16.6426 5.25586C18.8498 5.36771 20.6456 7.03756 20.9531 9.1875H18.2607C17.9903 8.42321 17.2632 7.875 16.4062 7.875H14.4375V9.1875C13.4811 9.1875 12.5848 9.44381 11.8125 9.89062V5.25H16.4062L16.6426 5.25586Z" fill="#FEF1F1"/>
<path d="M11.8125 15.75C11.8125 13.5754 13.5754 11.8125 15.75 11.8125H36.75C38.9246 11.8125 40.6875 13.5754 40.6875 15.75V36.75C40.6875 38.9246 38.9246 40.6875 36.75 40.6875H15.75C13.5754 40.6875 11.8125 38.9246 11.8125 36.75V15.75Z" fill="#E99D00"/>
<rect x="11.8125" y="11.8125" width="28.875" height="28.875" rx="3.9375" fill="#DD3332"/>
<path d="M23.1318 22.4821C23.558 21.6306 24.761 21.5959 25.2353 22.4216L28.3144 27.7819L29.7002 25.6911C30.2157 24.9131 31.3846 25.0002 31.7783 25.8464L34.8877 32.5329C35.2556 33.3243 34.6775 34.2302 33.8047 34.2302H19.1855C18.2979 34.23 17.7209 33.2955 18.1182 32.5016L23.1318 22.4821ZM31.1406 18.1559C32.4225 18.1561 33.4618 19.1953 33.4619 20.4772C33.4619 21.7593 32.4226 22.7983 31.1406 22.7985C29.8585 22.7985 28.8184 21.7594 28.8184 20.4772C28.8185 19.1952 29.8586 18.1559 31.1406 18.1559Z" fill="#FEF1F1"/>
</svg>
