<svg width="42" height="42" viewBox="0 0 42 42" fill="none" xmlns="http://www.w3.org/2000/svg">
<g clip-path="url(#clip0_48_2250)">
<path d="M24.1191 2.625C25.3107 2.625 26.4381 3.16481 27.1855 4.09277L33.2539 11.627C33.8174 12.3266 34.1249 13.1983 34.125 14.0967V22.6436C33.286 22.4276 32.4064 22.3125 31.5 22.3125C25.701 22.3125 21 27.0135 21 32.8125C21 35.2962 21.864 37.5772 23.3057 39.375H6.5625C4.38788 39.375 2.625 37.6121 2.625 35.4375V6.5625C2.625 4.38788 4.38788 2.625 6.5625 2.625H24.1191Z" fill="#DD3332"/>
<circle cx="31.5" cy="32.8125" r="7.875" fill="#F15C5B"/>
<path d="M35.75 32.0831C36.1642 32.0831 36.4999 32.419 36.5 32.8331V33.4327C36.5 34.2284 36.2376 35.0136 35.7402 35.6105C35.2395 36.2112 34.528 36.5831 33.75 36.5831H28.5605L29.2803 37.3028C29.5731 37.5957 29.5731 38.0705 29.2803 38.3634C28.9874 38.6563 28.5126 38.6563 28.2197 38.3634L26.2197 36.3634C26.1882 36.3319 26.1605 36.2981 26.1357 36.2628C26.1045 36.2182 26.0777 36.1702 26.0566 36.1192C26.036 36.0693 26.0211 36.0175 26.0117 35.965C26.0041 35.9222 26 35.8781 26 35.8331C26 35.7881 26.0041 35.7441 26.0117 35.7013C26.0208 35.6501 26.0349 35.5996 26.0547 35.5509L26.0586 35.5411C26.0791 35.4927 26.105 35.447 26.1348 35.4044C26.1597 35.3688 26.1879 35.3347 26.2197 35.3028L28.2197 33.3028C28.5126 33.01 28.9874 33.01 29.2803 33.3028C29.5731 33.5957 29.5731 34.0705 29.2803 34.3634L28.5605 35.0831H33.75C34.0327 35.0831 34.3385 34.9496 34.5879 34.6505C34.8406 34.3472 35 33.91 35 33.4327V32.8331C35.0001 32.419 35.3358 32.0831 35.75 32.0831ZM33.2197 27.3028C33.5126 27.01 33.9874 27.01 34.2803 27.3028L36.2803 29.3028C36.3119 29.3345 36.3394 29.3689 36.3643 29.4044C36.3951 29.4485 36.4215 29.4957 36.4424 29.546C36.4632 29.5963 36.4779 29.6484 36.4873 29.7013C36.4949 29.7441 36.5 29.7881 36.5 29.8331C36.5 29.8781 36.4949 29.9221 36.4873 29.965C36.4779 30.0176 36.463 30.0692 36.4424 30.1192C36.4213 30.1703 36.3946 30.2182 36.3633 30.2628C36.3386 30.2979 36.3116 30.332 36.2803 30.3634L34.2803 32.3634C33.9874 32.6563 33.5126 32.6563 33.2197 32.3634C32.9269 32.0705 32.9269 31.5957 33.2197 31.3028L33.9395 30.5831H28.75C28.371 30.5831 28.0327 30.7054 27.8047 30.8878C27.5812 31.0666 27.5002 31.2683 27.5 31.4327V31.8331C27.5 32.2473 27.1642 32.5831 26.75 32.5831C26.3358 32.5831 26 32.2473 26 31.8331V31.4327C26.0002 30.7488 26.3409 30.137 26.8672 29.7159C27.3893 29.2983 28.0682 29.0831 28.75 29.0831H33.9395L33.2197 28.3634C32.9269 28.0705 32.9269 27.5957 33.2197 27.3028Z" fill="#FEF1F1"/>
<path d="M19.0938 10C21.3892 10 23.25 11.8608 23.25 14.1562C23.25 16.4517 21.3892 18.3125 19.0938 18.3125H17.3125V24.25H13.1562C10.8608 24.25 9 22.3892 9 20.0938C9 17.7983 10.8608 15.9375 13.1562 15.9375H14.9375V10H19.0938ZM13.1562 18.3125C12.1725 18.3125 11.375 19.11 11.375 20.0938C11.375 21.0775 12.1725 21.875 13.1562 21.875H14.9375V18.3125H13.1562ZM17.3125 15.9375H19.0938C20.0775 15.9375 20.875 15.14 20.875 14.1562C20.875 13.1725 20.0775 12.375 19.0938 12.375H17.3125V15.9375Z" fill="#FEF1F1"/>
</g>
<defs>
<clipPath id="clip0_48_2250">
<rect width="42" height="42" fill="white"/>
</clipPath>
</defs>
</svg>
