<svg width="42" height="42" viewBox="0 0 42 42" fill="none" xmlns="http://www.w3.org/2000/svg">
<path d="M38.6823 2.6221C39.2759 2.53223 39.6054 3.21286 39.1911 3.64749L28.7956 14.5518C28.3975 14.9698 28.6938 15.6612 29.2712 15.6612H31.6862C32.2434 15.6614 32.5468 16.3119 32.1892 16.7393L25.6618 24.5401C23.6657 26.9255 20.7146 28.3037 17.6042 28.3037H12.0759C11.5823 28.3037 11.1303 28.5809 10.906 29.0205L5.46065 39.7002C4.9768 40.6491 3.87161 41.1021 2.86104 40.7657C1.67156 40.3694 1.07395 39.0533 1.59541 37.9131C3.85147 32.9811 9.93314 20.5768 17.2224 13.0215C24.5247 5.45259 34.7078 3.22519 38.6823 2.6221Z" fill="#DD3332"/>
<path d="M12.4688 36.7498C13.5556 36.7498 14.4365 37.6313 14.4365 38.7186C14.4365 39.8059 13.5556 40.6873 12.4688 40.6873C11.382 40.6873 10.501 39.8059 10.501 38.7186C10.501 37.6313 11.382 36.7499 12.4688 36.7498ZM32.1572 36.7498C33.2445 36.7498 34.126 37.6313 34.126 38.7186C34.126 39.8059 33.2445 40.6873 32.1572 40.6873H17.7197C16.6324 40.6873 15.751 39.8059 15.751 38.7186C15.751 37.6313 16.6324 36.7498 17.7197 36.7498H32.1572Z" fill="#F15C5B"/>
</svg>
