<svg width="42" height="42" viewBox="0 0 42 42" fill="none" xmlns="http://www.w3.org/2000/svg">
<g clip-path="url(#clip0_48_2267)">
<path d="M24.1191 2.625C25.3107 2.625 26.4381 3.16481 27.1855 4.09277L33.2539 11.627C33.8174 12.3266 34.1249 13.1983 34.125 14.0967V22.6436C33.286 22.4276 32.4064 22.3125 31.5 22.3125C25.701 22.3125 21 27.0135 21 32.8125C21 35.2962 21.864 37.5772 23.3057 39.375H6.5625C4.38788 39.375 2.625 37.6121 2.625 35.4375V6.5625C2.625 4.38788 4.38788 2.625 6.5625 2.625H24.1191Z" fill="#DD3332"/>
<circle cx="31.5" cy="32.8125" r="7.875" fill="#F15C5B"/>
<path d="M29 34.5L31.5 37L34 34.5" stroke="#FEF1F1" stroke-width="2" stroke-linecap="round" stroke-linejoin="round"/>
<path d="M29 31.5L31.5 29L34 31.5" stroke="#FEF1F1" stroke-width="2" stroke-linecap="round" stroke-linejoin="round"/>
<path d="M19.0938 10C21.3892 10 23.25 11.8608 23.25 14.1562C23.25 16.4517 21.3892 18.3125 19.0938 18.3125H17.3125V24.25H13.1562C10.8608 24.25 9 22.3892 9 20.0938C9 17.7983 10.8608 15.9375 13.1562 15.9375H14.9375V10H19.0938ZM13.1562 18.3125C12.1725 18.3125 11.375 19.11 11.375 20.0938C11.375 21.0775 12.1725 21.875 13.1562 21.875H14.9375V18.3125H13.1562ZM17.3125 15.9375H19.0938C20.0775 15.9375 20.875 15.14 20.875 14.1562C20.875 13.1725 20.0775 12.375 19.0938 12.375H17.3125V15.9375Z" fill="#FEF1F1"/>
</g>
<defs>
<clipPath id="clip0_48_2267">
<rect width="42" height="42" fill="white"/>
</clipPath>
</defs>
</svg>
