<svg width="42" height="42" viewBox="0 0 42 42" fill="none" xmlns="http://www.w3.org/2000/svg">
<path d="M2.625 34.125C2.625 36.2996 4.38788 38.0625 6.5625 38.0625" stroke="#F8B938" stroke-width="2.625" stroke-linecap="round"/>
<path d="M26.25 1.3125C28.4246 1.3125 30.1875 3.07538 30.1875 5.25V9.1875H14.4375C11.538 9.1875 9.1875 11.538 9.1875 14.4375V30.1875H5.25C3.07538 30.1875 1.3125 28.4246 1.3125 26.25V5.25C1.3125 3.07538 3.07538 1.3125 5.25 1.3125H26.25Z" fill="#F8B938"/>
<path d="M9.57617 12.4521C9.32577 13.0646 9.1875 13.7349 9.1875 14.4375V19.8916C8.95817 20.2742 8.54103 20.5312 8.0625 20.5312C7.33763 20.5312 6.75 19.9436 6.75 19.2188V13.7949C6.75015 13.0531 7.35186 12.4521 8.09375 12.4521H9.57617ZM15.79 5.90625C17.8691 5.90637 19.6237 7.29063 20.1855 9.1875H17.251C16.8921 8.78558 16.3713 8.53133 15.79 8.53125H8.0625C7.33763 8.53125 6.75 7.94362 6.75 7.21875C6.75 6.49388 7.33763 5.90625 8.0625 5.90625H15.79Z" fill="#F8E4BB"/>
<path d="M11.8125 15.75C11.8125 13.5754 13.5754 11.8125 15.75 11.8125H36.75C38.9246 11.8125 40.6875 13.5754 40.6875 15.75V36.75C40.6875 38.9246 38.9246 40.6875 36.75 40.6875H15.75C13.5754 40.6875 11.8125 38.9246 11.8125 36.75V15.75Z" fill="#E99D00"/>
<path d="M29.7676 18.3809C32.1948 18.5039 34.125 20.511 34.125 22.9688L34.1191 23.2051C34.0001 25.554 32.1165 27.4376 29.7676 27.5566L29.5312 27.5625H27.5625V34.125H22.9688L22.7324 34.1191C20.3835 34.0001 18.4999 32.1165 18.3809 29.7676L18.375 29.5312C18.375 27.0735 20.3052 25.0664 22.7324 24.9434L22.9688 24.9375H24.9375V18.375H29.5312L29.7676 18.3809ZM22.9688 27.5625C21.8814 27.5625 21 28.4439 21 29.5312C21 30.6186 21.8814 31.5 22.9688 31.5H24.9375V27.5625H22.9688ZM27.5625 24.9375H29.5312C30.6186 24.9375 31.5 24.0561 31.5 22.9688C31.5 21.8814 30.6186 21 29.5312 21H27.5625V24.9375Z" fill="#FCF2E0"/>
</svg>
