<svg width="42" height="42" viewBox="0 0 42 42" fill="none" xmlns="http://www.w3.org/2000/svg">
<path d="M24.9375 24.9375C24.9375 27.1121 23.1746 28.875 21 28.875H7.21875H5.25C3.07538 28.875 1.3125 27.1121 1.3125 24.9375V5.25C1.3125 3.07538 3.07538 1.3125 5.25 1.3125H21C23.1746 1.3125 24.9375 3.07538 24.9375 5.25V7.30436V24.9375Z" fill="#DD3332"/>
<path d="M36.75 10.5C38.9246 10.5 40.6875 12.2629 40.6875 14.4375V36.75C40.6875 38.9246 38.9246 40.6875 36.75 40.6875H19.6875C17.5129 40.6875 15.75 38.9246 15.75 36.75V31.5H23.625C25.7996 31.5 27.5625 29.7371 27.5625 27.5625C27.5625 21.875 27.5625 16.1875 27.5625 10.5H36.75Z" fill="#F15C5B"/>
<path d="M27.5624 26.25C27.8981 26.25 28.2338 26.3785 28.4901 26.6348L34.1249 32.2695V28.875C34.1249 28.1502 34.7126 27.5626 35.4374 27.5625C36.1623 27.5625 36.7499 28.1501 36.7499 28.875V34.7813C36.7499 35.8686 35.8684 36.75 34.7811 36.75H28.8749C28.1501 36.7499 27.5624 36.1623 27.5624 35.4375C27.5624 34.7127 28.1501 34.1251 28.8749 34.125H32.2694L27.2489 29.1035C27.4504 28.6302 27.5624 28.1095 27.5624 27.5625C27.5624 27.125 27.5624 26.6875 27.5624 26.25Z" fill="#FAC1C1"/>
<path d="M6.5625 14.4375V8.53125C6.5625 8.16881 6.85631 7.875 7.21875 7.875H13.125" stroke="#FEF1F1" stroke-width="2.625" stroke-linecap="round"/>
<path d="M7.21875 8.53125L14.4375 15.75" stroke="#FEF1F1" stroke-width="2.625" stroke-linecap="round"/>
</svg>
