<svg width="42" height="42" viewBox="0 0 42 42" fill="none" xmlns="http://www.w3.org/2000/svg">
<path d="M2.625 34.125C2.625 36.2996 4.38788 38.0625 6.5625 38.0625" stroke="#458BFA" stroke-width="2.625" stroke-linecap="round"/>
<path d="M26.25 1.3125C28.4246 1.3125 30.1875 3.07538 30.1875 5.25V9.19336C30.096 9.18885 30.0038 9.1875 29.9111 9.1875H14.7139C11.6618 9.1875 9.1875 11.6618 9.1875 14.7139V29.9111C9.1875 30.0038 9.18983 30.096 9.19434 30.1875H5.25C3.07538 30.1875 1.3125 28.4246 1.3125 26.25V5.25C1.3125 3.07538 3.07538 1.3125 5.25 1.3125H26.25Z" fill="#458BFA"/>
<path d="M6.85351 6C7.4672 6 7.99886 6.42574 8.13378 7.02441L9.47167 12.9619C9.28775 13.5125 9.18749 14.1014 9.18749 14.7139V20.3545C8.79009 20.2074 8.47687 19.8739 8.36913 19.4443L5.40917 7.63184C5.20156 6.80339 5.82763 6.00022 6.68163 6H6.85351ZM14.4746 6.58301C15.08 6.58302 15.607 6.99667 15.75 7.58496L16.1396 9.1875H14.7139C13.8018 9.1875 12.9418 9.40948 12.1836 9.80078L12.6689 7.61133C12.802 7.01031 13.3356 6.58301 13.9512 6.58301H14.4746ZM21.7295 6C22.572 6 23.197 6.78299 23.0098 7.60449L22.6494 9.1875H19.8428L20.2685 7.05566C20.3911 6.44206 20.93 6.00012 21.5557 6H21.7295Z" fill="#D6E6FF"/>
<rect x="11.8125" y="11.8125" width="28.875" height="28.875" rx="3.9375" fill="#1F69E0"/>
<path d="M29.7676 18.3809C32.1948 18.5039 34.125 20.511 34.125 22.9688L34.1191 23.2051C34.0001 25.554 32.1165 27.4376 29.7676 27.5566L29.5312 27.5625H27.5625V34.125H22.9688L22.7324 34.1191C20.3835 34.0001 18.4999 32.1165 18.3809 29.7676L18.375 29.5312C18.375 27.0735 20.3052 25.0664 22.7324 24.9434L22.9688 24.9375H24.9375V18.375H29.5312L29.7676 18.3809ZM22.9688 27.5625C21.8814 27.5625 21 28.4439 21 29.5312C21 30.6186 21.8814 31.5 22.9688 31.5H24.9375V27.5625H22.9688ZM27.5625 24.9375H29.5312C30.6186 24.9375 31.5 24.0561 31.5 22.9688C31.5 21.8814 30.6186 21 29.5312 21H27.5625V24.9375Z" fill="#EDF4FF"/>
</svg>
