<svg width="42" height="42" viewBox="0 0 42 42" fill="none" xmlns="http://www.w3.org/2000/svg">
<path d="M2.625 34.125C2.625 36.2996 4.38788 38.0625 6.5625 38.0625" stroke="#A770F0" stroke-width="2.625" stroke-linecap="round"/>
<path d="M26.25 1.3125C28.4246 1.3125 30.1875 3.07538 30.1875 5.25V9.19336C30.096 9.18885 30.0038 9.1875 29.9111 9.1875H14.7139C11.6618 9.1875 9.1875 11.6618 9.1875 14.7139V29.9111C9.1875 30.0038 9.18983 30.096 9.19434 30.1875H5.25C3.07538 30.1875 1.3125 28.4246 1.3125 26.25V5.25C1.3125 3.07538 3.07538 1.3125 5.25 1.3125H26.25Z" fill="#A770F0"/>
<path d="M6.85351 6C7.4672 6 7.99886 6.42574 8.13378 7.02441L9.47167 12.9619C9.28775 13.5125 9.18749 14.1014 9.18749 14.7139V20.3545C8.79009 20.2074 8.47687 19.8739 8.36913 19.4443L5.40917 7.63184C5.20156 6.80339 5.82763 6.00022 6.68163 6H6.85351ZM14.4746 6.58301C15.08 6.58302 15.607 6.99667 15.75 7.58496L16.1396 9.1875H14.7139C13.8018 9.1875 12.9418 9.40948 12.1836 9.80078L12.6689 7.61133C12.802 7.01031 13.3356 6.58301 13.9512 6.58301H14.4746ZM21.7295 6C22.572 6 23.197 6.78299 23.0098 7.60449L22.6494 9.1875H19.8428L20.2685 7.05566C20.3911 6.44206 20.93 6.00012 21.5557 6H21.7295Z" fill="#ECE1FC"/>
<rect x="11.8125" y="11.8125" width="28.875" height="28.875" rx="3.9375" fill="#9348F3"/>
<path d="M23.1318 22.4821C23.558 21.6306 24.761 21.5959 25.2353 22.4216L28.3144 27.7819L29.7002 25.6911C30.2157 24.9131 31.3846 25.0002 31.7783 25.8464L34.8877 32.5329C35.2556 33.3243 34.6775 34.2302 33.8047 34.2302H19.1855C18.2979 34.23 17.7209 33.2955 18.1182 32.5016L23.1318 22.4821ZM31.1406 18.1559C32.4225 18.1561 33.4618 19.1953 33.4619 20.4772C33.4619 21.7593 32.4226 22.7983 31.1406 22.7985C29.8585 22.7985 28.8184 21.7594 28.8184 20.4772C28.8185 19.1952 29.8586 18.1559 31.1406 18.1559Z" fill="#F7F2FE"/>
</svg>
