<svg width="42" height="42" viewBox="0 0 42 42" fill="none" xmlns="http://www.w3.org/2000/svg">
<path d="M2.625 34.125C2.625 36.2996 4.38788 38.0625 6.5625 38.0625" stroke="#FB7E33" stroke-width="2.625" stroke-linecap="round"/>
<path d="M26.25 1.3125C28.4246 1.3125 30.1875 3.07538 30.1875 5.25V9.1875H14.4375C11.538 9.1875 9.1875 11.538 9.1875 14.4375V30.1875H5.25C3.07538 30.1875 1.3125 28.4246 1.3125 26.25V5.25C1.3125 3.07538 3.07538 1.3125 5.25 1.3125H26.25Z" fill="#FB7E33"/>
<path d="M7.92285 8.4873L9.20996 6H11.6719L9.09863 10.2939L9.95508 11.7021C9.46794 12.4987 9.1875 13.4354 9.1875 14.4375V14.4678L7.92285 12.1006L6.47461 14.8105H4L6.74707 10.2939L4.17383 6H6.63574L7.92285 8.4873ZM16.4883 9.1875H14.4375C13.8416 9.1875 13.2692 9.28778 12.7354 9.4707V6H14.8643L16.4883 9.1875ZM20.9521 9.1875H17.1992L18.8242 6H20.9521V9.1875ZM24.8994 9.1875H22.7334V6H24.8994V9.1875Z" fill="#FDE0CF"/>
<path d="M11.8125 15.75C11.8125 13.5754 13.5754 11.8125 15.75 11.8125H36.75C38.9246 11.8125 40.6875 13.5754 40.6875 15.75V36.75C40.6875 38.9246 38.9246 40.6875 36.75 40.6875H15.75C13.5754 40.6875 11.8125 38.9246 11.8125 36.75V15.75Z" fill="#E2651A"/>
<path d="M29.7676 18.3809C32.1948 18.5039 34.125 20.511 34.125 22.9688L34.1191 23.2051C34.0001 25.554 32.1165 27.4376 29.7676 27.5566L29.5312 27.5625H27.5625V34.125H22.9688L22.7324 34.1191C20.3835 34.0001 18.4999 32.1165 18.3809 29.7676L18.375 29.5312C18.375 27.0735 20.3052 25.0664 22.7324 24.9434L22.9688 24.9375H24.9375V18.375H29.5312L29.7676 18.3809ZM22.9688 27.5625C21.8814 27.5625 21 28.4439 21 29.5312C21 30.6186 21.8814 31.5 22.9688 31.5H24.9375V27.5625H22.9688ZM27.5625 24.9375H29.5312C30.6186 24.9375 31.5 24.0561 31.5 22.9688C31.5 21.8814 30.6186 21 29.5312 21H27.5625V24.9375Z" fill="#FEF1EA"/>
</svg>
