<svg width="24" height="24" viewBox="0 0 24 24" fill="none" xmlns="http://www.w3.org/2000/svg">
<g clip-path="url(#clip0_37_1342)">
<path d="M12 -0.0370407C5.35068 -0.0370407 -0.0370483 5.35069 -0.0370483 12C-0.0370483 18.6493 5.35068 24.037 12 24.037C18.6493 24.037 24.037 18.6493 24.037 12C24.037 5.35069 18.6493 -0.0370407 12 -0.0370407ZM7.43402 17.1447C7.27777 17.4109 6.99999 17.5556 6.71064 17.5556C6.56596 17.5556 6.42129 17.5208 6.28818 17.4398C5.88888 17.2083 5.75578 16.6991 5.98726 16.2998L6.80902 14.934C6.89582 14.7893 7.04629 14.7025 7.21411 14.7025H7.33564C7.9317 14.7025 8.34837 15.0613 8.4699 15.4086L7.43402 17.1447ZM14.39 14.4595L9.00809 14.4653H5.4317C4.95716 14.4653 4.57522 14.0718 4.59837 13.5972C4.61573 13.1458 5.00925 12.8044 5.46064 12.8044H8.05323L11.1261 7.57291L10.1308 5.87731C9.90508 5.48958 10.0035 4.98032 10.3854 4.73726C10.7905 4.47685 11.3229 4.60995 11.5602 5.01504L12.0926 5.92361H12.0984L12.6308 5.01504C12.868 4.60995 13.4062 4.47685 13.8055 4.73726C14.1875 4.98032 14.2859 5.48958 14.0602 5.87731L13.0648 7.57291L12.0984 9.22222L9.99767 12.8044V12.8102H13.0937C13.4815 12.8102 13.9676 13.0185 14.1643 13.3542L14.1817 13.3889C14.3553 13.684 14.4537 13.8866 14.4537 14.1817C14.4479 14.3437 14.39 14.4595 14.39 14.4595ZM18.5683 14.4653H17.1099V14.4711L18.1748 16.2824C18.4062 16.6759 18.2963 17.1968 17.897 17.4398C17.7639 17.5208 17.6134 17.5613 17.463 17.5613C17.1736 17.5613 16.8958 17.4109 16.7396 17.1505L15.1655 14.4711L14.1875 12.8044L12.9259 10.6458C12.5555 10.015 12.5382 9.22801 12.8912 8.60301C13.14 8.16319 13.331 8.04745 13.331 8.04745L16.1377 12.7986H18.5509C19.0023 12.7986 19.39 13.1458 19.4132 13.5914C19.4305 14.0718 19.0486 14.4653 18.5683 14.4653Z" fill="black"/>
</g>
<defs>
<clipPath id="clip0_37_1342">
<rect width="24" height="24" fill="white"/>
</clipPath>
</defs>
</svg>
