<svg width="24" height="24" viewBox="0 0 24 24" fill="none" xmlns="http://www.w3.org/2000/svg">
<path d="M14 8C14.2652 8 14.5196 8.10536 14.7071 8.29289C14.8946 8.48043 15 8.73478 15 9V11C15 11.2652 15.1054 11.5196 15.2929 11.7071C15.4804 11.8946 15.7348 12 16 12H19.293C19.4329 12 19.5696 12.0414 19.6859 12.1191C19.8022 12.1968 19.8928 12.3072 19.9463 12.4364C19.9998 12.5656 20.0139 12.7078 19.9866 12.845C19.9593 12.9821 19.8919 13.1081 19.793 13.207L12.854 20.146C12.7419 20.2582 12.6088 20.3473 12.4622 20.408C12.3157 20.4688 12.1586 20.5 12 20.5C11.8414 20.5 11.6843 20.4688 11.5378 20.408C11.3912 20.3473 11.2581 20.2582 11.146 20.146L4.206 13.206C4.10744 13.1071 4.04038 12.9812 4.01328 12.8442C3.98619 12.7072 4.00027 12.5652 4.05375 12.4362C4.10724 12.3072 4.19772 12.197 4.3138 12.1193C4.42988 12.0417 4.56635 12.0002 4.706 12H8C8.26522 12 8.51957 11.8946 8.70711 11.7071C8.89464 11.5196 9 11.2652 9 11V9C9 8.73478 9.10536 8.48043 9.29289 8.29289C9.48043 8.10536 9.73478 8 10 8H14Z" stroke="#202342" stroke-width="2" stroke-linecap="round" stroke-linejoin="round"/>
<path d="M9 4H15" stroke="#202342" stroke-width="2" stroke-linecap="round" stroke-linejoin="round"/>
</svg>
