<svg width="24" height="24" viewBox="0 0 24 24" fill="none" xmlns="http://www.w3.org/2000/svg">
<path d="M0.896467 23.2131L12.125 12.0103L0.896467 0.78772C0.61961 1.23258 0.428467 1.95601 0.428467 2.99743V21.0026C0.428467 22.044 0.61961 22.7666 0.896467 23.214V23.2131Z" fill="#00D1FF"/>
<path d="M16.8685 16.7502L13.1888 13.0525L2.25769 23.9999H2.36398C3.29912 23.9999 4.1074 23.6596 5.40512 22.9576L16.8677 16.7502H16.8685Z" fill="#F7364A"/>
<path d="M18.2495 7.99286L14.2518 12.0111L18.2495 16.0071L20.6744 14.6889C21.5675 14.2003 22.9287 13.3071 22.9287 12.0111C22.9287 10.6929 21.5675 9.79972 20.6744 9.31115L18.2487 7.992L18.2495 7.99286Z" fill="#FFCB02"/>
<path d="M2.25769 0L13.1888 10.9474L16.8677 7.24886L5.40512 1.04143C4.1074 0.340286 3.29912 0 2.36398 0H2.25769Z" fill="#00F076"/>
</svg>
