<svg width="24" height="24" viewBox="0 0 24 24" fill="none" xmlns="http://www.w3.org/2000/svg">
<path d="M10.7754 6.34082C13.7383 6.34082 16.1452 8.7089 16.2119 11.6553C15.8682 11.9773 15.6533 12.4347 15.6533 12.9424V13.041H14.3604C13.5345 13.041 12.8643 13.7103 12.8643 14.5361V14.5723L12.8613 16.8047C12.2189 17.0717 11.5144 17.2207 10.7754 17.2207C7.7713 17.2205 5.33619 14.7852 5.33594 11.7812C5.33594 8.777 7.77114 6.34102 10.7754 6.34082Z" fill="white"/>
<path d="M2.31055 6.89062C2.8217 7.60552 3.29881 8.34415 3.74121 9.10352C4.27599 10.0298 5.21044 11.7365 6.54297 14.2227C6.97183 14.9659 7.58888 15.5835 8.33203 16.0127C9.07534 16.4419 9.91901 16.6681 10.7773 16.668C11.5 16.6678 12.2108 16.5052 12.8613 16.1982V16.9414H13.6367C13.3828 17.4272 13.1455 17.8646 12.9287 18.2559H12.8633L12.8623 18.373C12.7742 18.5308 12.6931 18.6826 12.6113 18.8242C12.2886 19.382 11.6768 20.2925 10.7773 21.5547C9.06129 21.5551 7.37497 21.1028 5.88867 20.2451C4.40248 19.3872 3.1677 18.153 2.30957 16.667C1.45155 15.1809 1.00001 13.4952 1 11.7793C1 10.0631 1.45231 8.3768 2.31055 6.89062Z" fill="#229342"/>
<path d="M10.8701 8C11.8965 8 12.8807 8.40802 13.6064 9.13379C14.3322 9.85957 14.7402 10.8438 14.7402 11.8701C14.7402 12.2712 14.6777 12.6657 14.5586 13.041H14.3604C13.5345 13.041 12.8643 13.7103 12.8643 14.5361V14.5723L12.8633 15.1875C12.2663 15.5461 11.5782 15.7402 10.8701 15.7402C9.84372 15.7402 8.85956 15.3322 8.13379 14.6064C7.40801 13.8807 7.00002 12.8966 7 11.8701C7 10.8438 7.408 9.85957 8.13379 9.13379C8.85957 8.40802 9.84371 8.00001 10.8701 8Z" fill="#1A73E8"/>
<path d="M10.7739 6.88917H19.2405C18.3828 5.40261 17.1487 4.16814 15.6624 3.30988C14.1761 2.45162 12.4899 1.99986 10.7737 2C9.05737 2.00014 7.37135 2.45221 5.8852 3.31072C4.39905 4.16924 3.16515 5.40393 2.30762 6.89064L6.54098 14.2221L6.54196 14.2231C6.11259 13.48 5.88643 12.637 5.88619 11.7788C5.88596 10.9206 6.11167 10.0775 6.54063 9.33416C6.96958 8.59086 7.58668 7.97358 8.32987 7.54438C9.07305 7.11519 9.91564 6.88921 10.7739 6.88917Z" fill="#E33B2E"/>
<path d="M14.1582 16.9414C14.5204 16.9417 14.8154 17.2364 14.8154 17.5986C14.8152 17.9607 14.5203 18.2556 14.1582 18.2559H12.8633L12.8594 20.625C12.8594 20.8665 12.917 21.0938 13.0166 21.2969C12.2865 21.4685 11.5357 21.5567 10.7793 21.5566L13.4453 16.9414H14.1582ZM15.1445 6.61816C16.0259 6.61816 17.3934 6.71025 19.2451 6.89258C20.1035 8.37853 20.5553 10.0642 20.5557 11.7803C20.5557 12.2036 20.5279 12.6249 20.4736 13.042C20.4639 13.0418 20.4541 13.041 20.4443 13.041H19.1816V12.9424C19.1816 11.9688 18.3915 11.1782 17.418 11.1777C16.444 11.1777 15.6533 11.9685 15.6533 12.9424V13.041H15.5029C15.6121 12.6318 15.668 12.2084 15.668 11.7812C15.668 10.9231 15.4419 10.0801 15.0127 9.33691C14.5835 8.59375 13.9659 7.97679 13.2227 7.54785C12.4793 7.11896 11.6365 6.89331 10.7783 6.89355L10.7793 6.89258C12.6896 6.71025 14.1449 6.61817 15.1445 6.61816Z" fill="#FBC116"/>
<path d="M22.0728 16.4342H21.3743V14.5718C21.3743 14.0572 20.9577 13.6406 20.4431 13.6406H18.5807V12.9422C18.5807 12.2996 18.0592 11.7781 17.4167 11.7781C16.7741 11.7781 16.2527 12.2996 16.2527 12.9422V13.6406H14.3902C13.8757 13.6406 13.4637 14.0572 13.4637 14.5718L13.4613 16.3411H14.1574C14.8511 16.3411 15.4145 16.9045 15.4145 17.5982C15.4145 18.292 14.8511 18.8553 14.1574 18.8553H13.4614L13.459 20.6247C13.459 21.1392 13.8757 21.5559 14.3902 21.5559H16.1596V20.8575C16.1596 20.1637 16.7229 19.6004 17.4167 19.6004C18.1104 19.6004 18.6738 20.1637 18.6738 20.8575V21.5559H20.4431C20.9577 21.5559 21.3743 21.1392 21.3743 20.6247V18.7623H22.0727C22.7153 18.7623 23.2368 18.2408 23.2368 17.5982C23.2368 16.9557 22.7153 16.4342 22.0728 16.4342Z" fill="#666666"/>
</svg>
