<svg width="147" height="32" viewBox="0 0 147 32" fill="none" xmlns="http://www.w3.org/2000/svg">
<path fill-rule="evenodd" clip-rule="evenodd" d="M21.5099 26.9002H21.501C21.4922 26.9002 21.4834 26.9001 21.4747 26.9C21.473 26.8999 21.4712 26.8998 21.4695 26.8998L21.4747 26.9C20.7328 26.89 20.0212 26.4797 19.6605 25.7728C19.6601 25.7721 19.6598 25.7713 19.6594 25.7706L16.7906 20.1314L19.1122 15.5717L21.5053 20.276L26.6101 10.2417L19.9455 10.2418C18.8037 10.2418 17.8781 9.3161 17.8781 8.17425V8.16735C17.8781 7.0255 18.8037 6.09985 19.9455 6.09985H29.9304C31.0722 6.09985 31.9977 7.0255 31.9977 8.16735L31.9978 8.18155C32.0138 8.52754 31.9431 8.88229 31.7748 9.21304L23.3516 25.7706L23.3504 25.7728C22.9906 26.4781 22.2813 26.8882 21.5413 26.8999C21.5397 26.8998 21.5382 26.8999 21.5366 26.8999L21.5413 26.8999C21.5309 26.9001 21.5204 26.9002 21.5099 26.9002Z" fill="url(#paint0_linear_35_3037)"/>
<path fill-rule="evenodd" clip-rule="evenodd" d="M20.1282 6.09985L28.6639 6.09985L26.4157 10.2418H20.1282V6.09985Z" fill="url(#paint1_linear_35_3037)"/>
<path fill-rule="evenodd" clip-rule="evenodd" d="M23.7021 6.09985C23.2949 6.11554 22.9118 6.23158 22.5528 6.44796C22.1939 6.66434 21.8853 7.01953 21.627 7.51352L21.6327 7.50275L12.3402 25.7689C11.9745 26.4879 11.2471 26.9013 10.493 26.9001C9.73898 26.9013 9.01153 26.4879 8.64578 25.7689L0.225806 9.21779C0.0177168 8.80875 -0.0416734 8.36298 0.0275847 7.94229C0.141078 6.90607 1.01792 6.09985 2.08278 6.09985H12.8598C13.7202 6.09985 14.4578 6.62616 14.7693 7.37485L15.2088 8.23882L12.8871 12.7985L11.5864 10.2417H5.38797L10.493 20.2767L17.0431 7.40107C17.4493 6.60267 18.2692 6.09985 19.1649 6.09985H23.7021Z" fill="url(#paint2_linear_35_3037)"/>
<path fill-rule="evenodd" clip-rule="evenodd" d="M23.7022 6.09985C23.2949 6.11554 22.9118 6.23158 22.5529 6.44796C22.2083 6.65569 21.9101 6.99134 21.6583 7.45491L21.6305 7.50676L15.7043 19.156L12.1119 17.0944L17.0432 7.40107C17.4493 6.60267 18.2693 6.09985 19.165 6.09985H23.7022Z" fill="url(#paint3_linear_35_3037)"/>
<path d="M102.298 10.3943C101.957 10.9911 101.787 11.8437 101.787 12.952V13.9933H99.5032V15.7471H101.787V24.2605H103.906V15.7471H106.61V13.9933H103.906V12.952C103.906 12.3186 103.979 11.8376 104.125 11.5087C104.271 11.1799 104.545 10.9607 104.947 10.851C105.361 10.7292 105.983 10.7049 106.811 10.778V9.07895C105.581 8.94498 104.606 8.98151 103.888 9.18856C103.169 9.38343 102.639 9.78535 102.298 10.3943Z" fill="black"/>
<path d="M109.922 12.952C109.922 11.8437 110.093 10.9911 110.434 10.3943C110.775 9.78535 111.305 9.38343 112.023 9.18856C112.742 8.98151 113.716 8.94498 114.946 9.07895V10.778C114.118 10.7049 113.497 10.7292 113.083 10.851C112.681 10.9607 112.407 11.1799 112.261 11.5087C112.115 11.8376 112.041 12.3186 112.041 12.952V13.9933H114.745V15.7471H112.041V24.2605H109.922V15.7471H107.639V13.9933H109.922V12.952Z" fill="black"/>
<path d="M118.644 24.2605V13.9933H116.562V24.2605H118.644Z" fill="black"/>
<path d="M116.635 11.6366C116.903 11.9046 117.225 12.0385 117.603 12.0385C117.993 12.0385 118.322 11.9046 118.59 11.6366C118.857 11.3565 118.991 11.0277 118.991 10.6501C118.991 10.2725 118.857 9.94979 118.59 9.68184C118.322 9.4139 117.993 9.27992 117.603 9.27992C117.225 9.27992 116.903 9.4139 116.635 9.68184C116.367 9.94979 116.233 10.2725 116.233 10.6501C116.233 11.0277 116.367 11.3565 116.635 11.6366Z" fill="black"/>
<path d="M128.669 23.822C128.121 24.09 127.591 24.2727 127.079 24.3701C126.58 24.4675 126.014 24.5101 125.38 24.498C124.43 24.4736 123.596 24.2483 122.878 23.822C122.171 23.4079 121.623 22.799 121.233 21.9951C120.844 21.1913 120.649 20.2169 120.649 19.0721C120.649 17.9881 120.856 17.0442 121.27 16.2404C121.684 15.4366 122.256 14.8215 122.987 14.3952C123.718 13.969 124.534 13.7558 125.435 13.7558C126.032 13.7558 126.598 13.8167 127.134 13.9385C127.67 14.0481 128.151 14.2247 128.578 14.4683V16.2952C128.103 16.0151 127.628 15.8263 127.153 15.7289C126.678 15.6193 126.172 15.5705 125.636 15.5827C124.796 15.5949 124.114 15.9055 123.59 16.5144C123.079 17.1234 122.823 17.976 122.823 19.0721C122.823 20.1926 123.072 21.0573 123.572 21.6663C124.083 22.2631 124.784 22.5858 125.673 22.6345C126.184 22.6589 126.665 22.6224 127.116 22.5249C127.579 22.4275 128.096 22.2387 128.669 21.9586V23.822Z" fill="black"/>
<path fill-rule="evenodd" clip-rule="evenodd" d="M134.685 24.498C133.626 24.498 132.718 24.2848 131.963 23.8586C131.208 23.4445 130.63 22.8355 130.228 22.0317C129.826 21.2278 129.625 20.2535 129.625 19.1086C129.625 18.0003 129.82 17.0442 130.209 16.2404C130.599 15.4366 131.153 14.8215 131.872 14.3952C132.603 13.969 133.467 13.7558 134.466 13.7558C135.501 13.7558 136.372 13.9872 137.079 14.45C137.785 14.9007 138.29 15.5705 138.595 16.4596C138.899 17.3487 138.985 18.4205 138.851 19.675H131.765C131.84 20.6302 132.119 21.3549 132.603 21.849C133.175 22.4214 134.022 22.7076 135.142 22.7076C135.715 22.7076 136.281 22.6467 136.841 22.5249C137.414 22.4031 137.98 22.2265 138.54 21.9951V23.7672C137.956 24.0108 137.34 24.1935 136.695 24.3153C136.062 24.4371 135.392 24.498 134.685 24.498ZM132.475 16.3866C132.13 16.8182 131.907 17.4028 131.806 18.1404H136.946C136.91 17.3889 136.729 16.7982 136.403 16.3683C135.94 15.7593 135.276 15.4548 134.411 15.4548C133.607 15.4548 132.962 15.7654 132.475 16.3866Z" fill="black"/>
<path fill-rule="evenodd" clip-rule="evenodd" d="M91.6584 24.4614C90.3796 24.4614 89.2225 24.1813 88.1873 23.6211C87.1642 23.073 86.3543 22.2204 85.7575 21.0634C85.1607 19.9064 84.8624 18.4753 84.8624 16.7702C84.8624 15.0651 85.1607 13.6401 85.7575 12.4953C86.3543 11.3382 87.1642 10.4796 88.1873 9.91934C89.2225 9.35909 90.3796 9.07896 91.6584 9.07896C92.9372 9.07896 94.0882 9.35909 95.1112 9.91934C96.1465 10.4796 96.9625 11.3382 97.5593 12.4953C98.1682 13.6401 98.4727 15.0651 98.4727 16.7702C98.4727 18.4753 98.1682 19.9064 97.5593 21.0634C96.9625 22.2204 96.1465 23.073 95.1112 23.6211C94.0882 24.1813 92.9372 24.4614 91.6584 24.4614ZM91.6401 22.4336C92.4927 22.4336 93.2478 22.2387 93.9055 21.849C94.5753 21.447 95.1051 20.8259 95.4949 19.9855C95.8846 19.133 96.0795 18.0612 96.0795 16.7702C96.0795 15.4792 95.8846 14.4135 95.4949 13.5731C95.1051 12.7206 94.5753 12.0994 93.9055 11.7097C93.2478 11.3078 92.4927 11.1068 91.6401 11.1068C90.7998 11.1068 90.0507 11.3078 89.3931 11.7097C88.7354 12.0994 88.2117 12.7206 87.8219 13.5731C87.4444 14.4135 87.2556 15.4792 87.2556 16.7702C87.2556 18.0612 87.4444 19.133 87.8219 19.9855C88.2117 20.8259 88.7354 21.447 89.3931 21.849C90.0507 22.2387 90.7998 22.4336 91.6401 22.4336Z" fill="black"/>
<path d="M74.328 11.1981C75.8748 11.1981 77.3607 11.4478 78.7856 11.9472V9.82797C78.0671 9.59657 77.3363 9.42606 76.5934 9.31644C75.8504 9.20683 75.0892 9.15202 74.3098 9.15202C73.238 9.15202 72.3002 9.32253 71.4963 9.66355C70.7047 10.0046 70.0957 10.4735 69.6694 11.0703C69.2553 11.667 69.0483 12.343 69.0483 13.0981C69.0483 13.7923 69.1944 14.4135 69.4867 14.9616C69.7912 15.5096 70.2906 16.009 70.9848 16.4596C71.679 16.8981 72.6168 17.2939 73.7982 17.6471C74.6508 17.8907 75.3145 18.1464 75.7895 18.4144C76.2645 18.6823 76.5934 18.9625 76.7761 19.2548C76.9588 19.5471 77.0501 19.8759 77.0501 20.2413C77.0501 20.6432 76.9405 21.0025 76.7213 21.3191C76.502 21.6236 76.1671 21.8672 75.7165 22.0499C75.278 22.2204 74.7482 22.3057 74.1271 22.3057C73.2989 22.3057 72.4098 22.2082 71.4598 22.0134C70.5098 21.8063 69.6573 21.5323 68.9021 21.1913V23.347C69.6329 23.6758 70.4489 23.9316 71.3502 24.1143C72.2515 24.3092 73.171 24.4066 74.1088 24.4066C75.2415 24.4066 76.2097 24.23 77.0136 23.8768C77.8296 23.5358 78.4507 23.0547 78.877 22.4336C79.3033 21.8002 79.5164 21.0756 79.5164 20.2595C79.5164 19.1025 79.151 18.1464 78.4203 17.3913C77.6895 16.6362 76.4838 16.0394 74.803 15.601C73.8774 15.3696 73.171 15.1321 72.6838 14.8885C72.1966 14.6327 71.8617 14.3648 71.679 14.0846C71.4963 13.8045 71.405 13.4757 71.405 13.0981C71.405 12.5257 71.6608 12.069 72.1723 11.7279C72.6838 11.3747 73.4024 11.1981 74.328 11.1981Z" fill="black"/>
<path fill-rule="evenodd" clip-rule="evenodd" d="M59.2406 24.2422V19.6201H60.903C62.3158 19.6201 63.4972 19.4192 64.4472 19.0173C65.4094 18.6032 66.128 18.0064 66.6029 17.2269C67.0901 16.4474 67.3337 15.5035 67.3337 14.3952C67.3337 12.7267 66.7795 11.4539 65.6712 10.577C64.5751 9.7001 62.9857 9.26164 60.903 9.26164H56.9752V24.2422H59.2406ZM60.903 11.2712H59.2406V17.6106H60.903C62.328 17.6106 63.3754 17.3426 64.0453 16.8067C64.7273 16.2708 65.0684 15.4731 65.0684 14.4135C65.0684 13.4148 64.7212 12.6414 64.027 12.0933C63.345 11.5453 62.3037 11.2712 60.903 11.2712Z" fill="black"/>
<path d="M42.6057 21.0338L39.9817 9.26164H37.625L41.3153 24.2605H43.873L46.3282 13.0755L48.9335 24.2605H51.5277L55.1084 9.26164H52.8978L50.1971 21.1826L47.4537 9.27991H45.2432L42.6057 21.0338Z" fill="black"/>
<defs>
<linearGradient id="paint0_linear_35_3037" x1="24.3953" y1="6.09985" x2="24.3953" y2="26.9002" gradientUnits="userSpaceOnUse">
<stop stop-color="#FF1C1F"/>
<stop offset="1" stop-color="#FF4A04"/>
</linearGradient>
<linearGradient id="paint1_linear_35_3037" x1="21.5196" y1="7.82277" x2="26.4062" y2="10.2415" gradientUnits="userSpaceOnUse">
<stop stop-color="#BD0000"/>
<stop offset="0.770833" stop-color="#BD0000" stop-opacity="0"/>
</linearGradient>
<linearGradient id="paint2_linear_35_3037" x1="11.8511" y1="6.09985" x2="11.8511" y2="26.9001" gradientUnits="userSpaceOnUse">
<stop stop-color="#FF1C1F"/>
<stop offset="1" stop-color="#FF4A04"/>
</linearGradient>
<linearGradient id="paint3_linear_35_3037" x1="17.9071" y1="6.09985" x2="17.9071" y2="15.1843" gradientUnits="userSpaceOnUse">
<stop stop-color="#FF9825"/>
<stop offset="1" stop-color="#FF9825" stop-opacity="0"/>
</linearGradient>
</defs>
</svg>
